<?xml version="1.0" encoding="UTF-8" standalone="no"?>
<!-- Created with Inkscape (http://www.inkscape.org/) -->

<svg
   version="1.1"
   id="svg1"
   width="5453.4399"
   height="5133.7065"
   viewBox="0 0 5453.4399 5133.7065"
   sodipodi:docname="yaguarete_os_vector.svg"
   inkscape:version="1.4.4 (dcaf3e7d9e, 2026-05-05)"
   xmlns:inkscape="http://www.inkscape.org/namespaces/inkscape"
   xmlns:sodipodi="http://sodipodi.sourceforge.net/DTD/sodipodi-0.dtd"
   xmlns="http://www.w3.org/2000/svg"
   xmlns:svg="http://www.w3.org/2000/svg">
  <defs
     id="defs1" />
  <sodipodi:namedview
     id="namedview1"
     pagecolor="#505050"
     bordercolor="#eeeeee"
     borderopacity="1"
     inkscape:showpageshadow="0"
     inkscape:pageopacity="0"
     inkscape:pagecheckerboard="0"
     inkscape:deskcolor="#505050"
     inkscape:zoom="0.14570369"
     inkscape:cx="2724.7079"
     inkscape:cy="2566.8533"
     inkscape:window-width="1829"
     inkscape:window-height="957"
     inkscape:window-x="0"
     inkscape:window-y="0"
     inkscape:window-maximized="1"
     inkscape:current-layer="group-R5">
    <inkscape:page
       x="0"
       y="0"
       inkscape:label="1"
       id="page1"
       width="5453.4399"
       height="5133.7065"
       margin="0"
       bleed="0" />
  </sodipodi:namedview>
  <g
     id="g1"
     inkscape:groupmode="layer"
     inkscape:label="1">
    <g
       id="group-R5">
      <path
         id="path2"
         d="m 7920.12,37679.1 c 714.43,652 1767.46,1037.1 2713.88,698 1228.4,-420.4 2054.7,-1479.2 2970.7,-2338 4332.2,2212.5 9745.5,2520.6 14130,291.1 -2903.4,1100.9 -6108.4,1257.4 -9148.3,707.1 -1334,-241.2 -2656.3,-613.2 -3870.1,-1224.4 219.4,18.8 439.8,27.1 659.7,40.7 2368.1,1234.6 5231.2,991 7680.2,121.5 1584.3,-270.7 3086.4,-897.5 4493.9,-1656.5 528.5,58.1 1083.6,147.2 1524.4,468.8 641.3,450 1365.9,941.6 2190.7,837.5 1037.6,-134.6 1715.7,-1159.1 1855.2,-2129.7 341,330.3 630.6,716.3 789.5,1167.8 -12.1,-958.1 -133.6,-1983.5 -735.3,-2767.2 167.1,49.4 317.8,137.5 468.4,222.8 -189.9,-526.5 -554.1,-966.8 -951.8,-1348.5 218,-32.5 421.9,61.5 624.9,124.5 -117.8,-217.5 -281.5,-413.2 -499.4,-536.7 1127.6,-1150.9 2160.8,-2467.4 2631.5,-4031.9 148.8,-526.5 273.2,-1129.6 -7.2,-1635.7 496.5,-1205.2 506.6,-2585.6 83.8,-3814 -153.6,-519.2 -427.7,-1062.7 -262.5,-1613.4 214.1,-657.8 815.6,-1079.7 1109.1,-1694.3 382.3,-792 496.5,-1684.2 523.7,-2554.1 493.5,-24.7 987.6,2.4 1481.2,-7.7 -489.2,-74.6 -987.7,-75.2 -1479.8,-131.8 -10.7,-188.4 -23.2,-376.8 -31.5,-565.7 1218.7,-240.3 2454.8,-410.3 3698.2,-426.3 -1247.7,-41.2 -2493,104.6 -3730.6,243.6 -45.5,-223.2 -90.1,-447 -153.1,-666.4 1285.5,-394.8 2620,-645.2 3898.2,-1043.4 -926.5,138.6 -1840.5,348.3 -2762.8,512 605.5,-245.1 1280.2,-311.5 1893.4,-544.9 -1061.8,171 -2116.7,389 -3169.2,610.3 -56.7,-118.6 -98.9,-243.6 -134.2,-370.1 1491.8,-603.5 2992.9,-1204.1 4433.9,-1915.6 -1285,415.1 -2517.8,982.2 -3805.7,1388.2 820.1,-442.7 1734.1,-715.9 2559.9,-1154.3 -1154.2,339.1 -2259.1,841.9 -3414.3,1177.5 -32,-55.7 -64,-111.8 -95.9,-168.1 1661.4,-813.7 3314.1,-1683.2 4818,-2763.8 -1612.5,889.3 -3244.8,1753.9 -4935.7,2488.7 -35.9,-43.6 -71.2,-87.6 -106.6,-131.7 1490.9,-754.7 3047.2,-1418.3 4436.9,-2345.8 -1410.1,704.7 -2832.1,1390.6 -4289.6,1993.6 -119.2,41.7 -246.6,127.4 -370.6,49.4 593.9,-498.4 1260.8,-913.5 1833.4,-1442.9 1062.2,-955.6 1974.7,-2084.2 2681.4,-3325.2 -1348.9,1702.6 -2891.2,3281.1 -4703.7,4492 1446.4,-1253 2942.6,-2519.7 4084.2,-4081.7 -1303,1378.9 -2696.9,2747.8 -4271.6,3789.2 1361.5,-1468.1 2474.6,-3324.7 2575.8,-5367.8 -377.3,1886.1 -1274.8,3646.4 -2491.5,5127.5 -53.3,62 -114.4,118.7 -191.9,145.8 1015.8,-1270.5 1787.4,-2725 2300.3,-4269.7 l -98.8,21.3 c 15,-48.4 30,-96.9 45.5,-145.8 42.6,-19.8 86.3,-39.2 129.9,-59.6 40.2,-108.4 77,-217.4 104.6,-331.2 -63,119.1 -126.4,236.8 -190.4,354 39.7,-173.9 78.5,-348.2 116.7,-523.5 -690.2,1625.4 -1554.8,3185.1 -2664,4565.5 C 34480.5,9594 33714.7,9281.5 33006.1,9485 32896.6,8211.1 32638.4,6892.6 31858.1,5845.4 31310.8,5074.3 30558,4310.5 30570.2,3299 c -248.9,317.8 -409.3,694.6 -483.9,1089.8 -719.3,-528.3 -1632.8,-425.2 -2450.9,-624.7 8.7,186.4 19.9,372.9 23.7,559.4 -860.7,-87.6 -1663.8,-537.1 -2232.9,-1182.8 139.5,572 72.1,1189.1 -340,1636.6 -576.9,810.4 -1586.3,1133.5 -2210.2,1892.9 -1106.4,-934.8 -1557.3,-2519.7 -1304.4,-3921.4 -420,712 -600.1,1542.2 -627.8,2362.3 -428.6,-746 -515.8,-1645 -422.8,-2487.3 -271.3,387 -419,844.3 -530.9,1298.6 -292.1,-457.2 -392.8,-1051 -174.8,-1559.6 C 20218.3,1327.2 21127.9,617.102 22009.9,0 21365.2,233.5 20728.3,497 20063.3,668.902 18904.7,948.902 17843.4,1520 16830.6,2131.3 17556.6,1196.4 18562.7,500.902 19647.2,41.2031 18685.7,141.898 17723.2,338.102 16839.8,741.102 15540.2,1310.7 14497.4,2302.7 13566,3348 13924.8,2077.4 14794.3,1030.7 15736.9,139.5 14580.2,763.402 13560.1,1604.8 12636.4,2533.3 11548.1,3724.3 10439.3,4898.4 9272.96,6014 7779.19,7423 6548.86,9109.6 5695.89,10979.2 c -69.27,-402.5 -13.08,-811.3 93.5,-1202.2 -750.77,697 -1348.5,1566 -1704.02,2528.9 -502.3,1305.4 -1152.31,2572.9 -1361.56,3970.9 -114.31,895.6 -259.61,1786.3 -391.88,2679 -139.48,-322.6 -378.26,-639.8 -306.1,-1010.9 349.22,-2578.3 1120.33,-5091.2 2228.59,-7443.7 C 5520.54,7825.4 7172.74,5308.7 9291.38,3230.8 6945.08,5221.6 5157.76,7818.3 3801.52,10566 c -1115.51,2299.9 -1887.57,4795.3 -2053.7,7354.2 -137.09,-356 -200.55,-733.8 -313.4,-1096.6 -199.08,1708.4 -58.6,3491.8 598.2,5093.2 221.34,379.7 219.89,836.5 426.73,1222.1 337.12,718.7 927.56,1275.3 1537.38,1761.1 182.61,980.9 762.88,1819.3 1415.34,2548.8 125.93,528.4 290.61,1064.1 638.37,1495.7 333.73,484.4 931.93,810.8 1044.31,1426.9 -11.14,383.7 62.02,811.4 -174.87,1144.6 -341.96,535.7 -498.88,1158.1 -589.46,1780.6 -366.18,-496.1 -526.01,-1106.9 -735.75,-1677.9 -69.27,219.4 -30.52,455.3 -17.92,680.5 -2347.76,-2640.3 -4126.84,-5794 -5080.559,-9200.6 174.375,1155.2 550.719,2270.7 967.759,3359.1 934.86,2350.7 2292.52,4577.4 4184,6278.9 167.09,320.7 262.03,731.9 619.01,901.4 14.53,1485.6 529.43,3027.3 1653.16,4041.1"
         style="fill:#141313;fill-opacity:1;fill-rule:nonzero;stroke:none"
         transform="matrix(0.13333333,0,0,-0.13333333,0,5133.7067)" />
      <path
         id="path3"
         d="m 7385.36,36039.5 c 445.63,944.6 1268.09,1863.9 2370.5,1951.1 1056.44,33.9 1914.24,-711.6 2614.14,-1415.9 1014.3,-969.6 1856.6,-2134.1 3036,-2919.2 576,-380.2 1261.9,-707.2 1970,-591 605,109.5 1053.4,563.9 1454.5,994.9 102.7,105.6 188.4,225.7 277.1,343 -349.7,-57.7 -706.2,-156.5 -1061.2,-80.4 28.5,46.9 57.6,94.4 87.1,141.4 -154.5,98.8 -304.2,204.9 -436.9,331.8 682,-272.7 1561.2,-143.4 2150.6,294.5 -392.3,363.7 -985.7,201.5 -1470.5,239.2 -312.5,17 -846.7,18 -824.4,-424.2 -405.9,207.7 -689.3,598.7 -980.8,939.6 529.4,152.6 1071.9,264.5 1621.6,307.1 -238.3,-122 -527.5,-211.1 -652.4,-472.2 625.3,-230.6 1303,-105.6 1946.7,-235.4 184.5,-15.1 482.9,-93 566.2,130.7 15.5,300.8 -262.1,486.3 -512.5,579.4 1029.7,-70.8 2103.1,-188.5 3044.7,-631.7 -327.9,27.7 -722.6,185.5 -1007,-57.6 531.9,-531.4 1342.7,-602.6 2032,-816.2 256.7,-106.5 393.3,109 213,309.5 1011.9,-790.9 1827.6,-1795.5 2695.6,-2733.2 -202.4,-48 -544,-62.5 -544.9,-340.1 597.2,-261.1 1301,-413.1 1686.6,-995.4 1173.6,-1534.9 2077.9,-3274.3 2644.2,-5121.2 2.4,107.5 -1.5,214.1 0,321.2 32.4,289.1 -21.9,577.8 -4.4,866.9 333.2,-187.9 444.6,255.3 300.8,483.4 -114.4,297.9 103.6,853 -371.1,887.4 -46.5,-211.7 -98.8,-421.4 -143.3,-633.5 -270.3,1257.4 -945.5,2356.4 -1660.5,3405.1 185.6,-17.9 373,-17.5 558,7.3 8.3,336.1 -398.6,458.2 -671.3,490.6 -123.5,13.1 -225.2,85.3 -295,185 -766.3,957.6 -1672.5,1793.2 -2634.5,2551.2 -89.1,69.8 -197.1,104.6 -303.2,137.6 -225.7,163.2 -414.1,378.3 -624.3,562.3 1626,-551.2 3170.7,-1324.2 4627.1,-2230 1182.4,-716.4 2274.6,-1590.7 3173.2,-2644.7 1260.3,-1275.8 2518.2,-2735.7 2809.8,-4567.6 -536.2,2.4 -1090.3,14.6 -1585.9,-221.8 400.1,424.8 908.7,777.9 1139.8,1335.4 -443.2,-281.4 -879.6,-587.5 -1387.3,-744 73.2,93 134.7,205.4 240.3,265.4 460.2,209.3 750.3,845.7 469.3,1304.5 -315.7,783.7 -965.3,1363 -1584.8,1908.9 -291.6,291 -669,606.4 -666.5,1053.9 -269.8,-361.8 -82.8,-855.3 154,-1183.8 473.8,-632.5 1294.2,-1052.5 1449.7,-1887.5 121.1,-668 -447,-1142.2 -665,-1716.2 -33.4,-4.8 -100.7,-14.5 -134.2,-19.3 4.9,88.6 9.7,176.8 15.5,264.4 -70.7,-46 -140.9,-92.5 -211.2,-139 -7.2,222.3 60.6,440.3 36.4,662.6 -631.7,-1069 -631.1,-2500.8 50.4,-3548.5 808.3,-2027.6 2551.6,-3542.2 3246.2,-5619.6 -513.4,-7.3 -885,-435 -1335.9,-628.7 -208.2,-69.3 -392.4,-424.3 -614.7,-202.5 -681.5,563.8 -1637.6,713.4 -2470.7,431.6 -445.7,-167.6 -983.3,-52.8 -1258.5,353.1 -9.1,1124.7 -755.6,2072.1 -1606.6,2732.3 100.3,0 201.5,0 302.3,0.5 93.9,-103.2 197.6,-197.2 303.7,-287.3 -203,398.2 -480,753.2 -683,1151.9 326.5,-36.4 502.3,-351.6 764.3,-512 -109.9,300.3 -203.4,614.7 -170.5,937.7 91.1,27.7 182.2,55.2 275.2,77 22.7,2.5 67.8,7.3 90,9.8 161.3,16.4 322.2,40.6 482.4,66.8 -440.2,308.5 -936.7,572.5 -1236,1037.5 158.4,67.3 277,194.2 383.6,324.5 80.4,97.4 154.5,199.6 227.2,302.8 -181.6,-17 -362.3,-40.7 -543,-66.4 239.7,380.7 517.3,736.3 838.4,1051.6 -333.2,-48.9 -649,-169.6 -976.9,-242.2 95.4,108.5 191.8,216 288.7,323.5 -236.4,-51.8 -476.7,-89.1 -718.9,-92 268.4,341 561,662.7 817.2,1012.9 -846.7,-194.3 -1710.3,429.1 -1776.2,1296.6 -528.4,143.4 -1056.4,299.8 -1515.6,609.3 -279.5,342.5 -565.2,736.7 -552.2,1200.3 -17.4,535.7 369.1,972.6 402,1498.7 35.9,449.9 -148.2,890.2 -431.6,1232.7 78.5,-279 150.2,-576.4 68.9,-864.1 -153.6,-663.1 -800.2,-1114.6 -839.5,-1815.5 -39.7,-358.4 157.9,-674.2 331.4,-969.2 72.6,-219.9 177.7,-436.9 172.8,-674.2 -597.7,310.4 -1302.4,675.1 -1983.4,416 -336.2,-15 -677.2,15 -1008,-59.1 919.8,27.2 1863.3,-147.7 2680,-582.2 57.7,-66.8 111.9,-136.6 167.1,-205.8 -66.3,-27.6 -132.7,-55.7 -198.5,-84.3 -1046.8,375.9 -2176.8,267.4 -3267.1,295 71.2,-39.7 141.9,-80 214.1,-117.7 -253.4,2.4 -505.3,36.8 -752.7,89.6 25.1,17.9 75.5,53.3 100.7,71.2 -233.4,95.9 -478.1,170 -688.3,313.4 409.8,260.5 797.8,558 1235.1,772 552.2,-142.8 1481.3,184.1 1259.4,890.3 322.1,93.5 493.1,435.9 817.6,510.6 603.1,47.9 608.4,877.6 150.2,1138.2 -462.1,313.9 -1061.3,316.3 -1597.5,263 -94.9,323.1 -348.7,558.5 -534.7,828.8 158.4,-529.9 -44.6,-1084.5 -435.5,-1456 -421.8,-524.1 -1033.6,-863.6 -1695.2,-972.2 -83.3,208.3 -333.3,360 -530.4,192.3 -402,-306.6 -880.1,-532.8 -1210,-923.1 -231.5,-272.7 -94.9,-693.2 231.1,-814.8 -176.3,-255.7 -328.5,-529.9 -413.7,-830.7 -449.5,84.3 -930.5,452.9 -1374.6,156.5 -327.9,-190.9 -788.1,-607.4 -488.3,-1006.5 518.3,-613.7 1438.6,-516.4 2002.9,-20.9 163.2,-590.9 -185.5,-1124.2 -453.8,-1618.7 367.6,39.7 735.7,200 1107.2,136.6 322.1,-200 586.1,-484.9 903.4,-695.1 -115.8,348.7 -4.9,729.5 403.9,772.1 -225.7,83.8 -496.9,127.8 -650,331.3 -162.3,277.6 43.6,642.2 330.8,733.8 272.7,82.4 558.5,117.2 827.3,217 272.7,-99.3 531.8,-236.4 767.2,-407.4 12.6,-216.9 216.6,-336.1 338.2,-493.1 -402.1,239.4 -772.6,580.8 -1247.8,660.3 1379,-754.2 2091,-2348.2 3573.2,-2937.3 -37.3,-60.5 -74.1,-121.6 -110.4,-182.6 94.9,-51.3 189.8,-102.7 285.8,-153.5 -175.9,-48.9 -360,-111.9 -451.5,-283.8 -563.8,139.5 -991,606.4 -1556.8,711.9 229.1,-582.6 916.5,-824.8 1464.3,-1029.2 265.4,-339.6 725.1,-498.9 915.5,-902.4 49.4,-177.3 -173.4,-234 -294.1,-288.2 -494,154 -1038.9,92.5 -1519.4,-81.4 -396.7,-137.5 -547.8,-734.7 -224.8,-1020.6 -306.1,-560.3 -1056.4,-34.8 -1550.9,-227.6 498.4,-368.2 989,-845.2 993.4,-1514.6 -549.8,202 -1039.9,564.8 -1621.6,679.1 -326.5,243.1 -664.6,479.4 -935.9,785.6 556.1,57.6 1132.5,65.4 1658.1,277.1 377.3,93.4 779.8,395.7 748.8,823.9 -29.1,224.8 -316.8,168.6 -477.1,205.3 -501.3,9.3 -836.5,612.3 -1361.6,437.5 -371,-95 -452.4,-507.2 -365.6,-833.7 -77.6,54.8 -158.9,102.8 -240.8,149.7 -66.8,603.5 -828.8,953.8 -1337.8,625.3 -535.3,282.9 -1092.3,524.6 -1624.6,809.4 212.2,234.5 459.6,553.1 331.3,886.9 -159.3,388 -453.4,715.9 -795.8,953.2 -167.1,123.1 -430.1,163.8 -574,-16.5 -249.5,-295.4 -487.2,-604 -694.6,-930.4 -403,133.2 -824.9,188.4 -1238.1,281.4 320.2,315.4 704.8,845.7 357,1276.3 -186.4,227.7 -472.2,668.5 -805.9,445.7 -336.2,-377.9 -488.3,-881.6 -677.7,-1342.7 -499.3,3.9 -928,-278.1 -1348.4,-509.6 251.3,707.2 606.3,1371.3 1162.9,1885.2 -1314.1,13.1 -2252.3,-1114.5 -2752.64,-2213.6 116.24,844.8 210.21,1747.6 727.52,2458.2 -188.43,-68.3 -370.57,-158.9 -520.22,-294 -25.2,-17.5 -75.57,-52.8 -100.75,-70.7 -118.65,-15.5 -237.82,-23.3 -356.98,-31.5 93.98,828.8 739.63,1419.7 1226.89,2041.1 942.08,735.3 2075.08,1172.6 3101.88,1766 -1006.5,-314.8 -2023.2,-621.9 -2972.55,-1088.9 813.25,986.7 2028.05,1483.7 3173.65,1972.4 807.9,398.6 1146.9,1296.7 1550.9,2043.1 -384.1,-287.2 -935.8,-567.7 -1389.6,-264.5 645.1,50.4 1118.4,551.2 1443.4,1067.1 415.6,648.1 1253.5,791 1966.5,780.3 668.4,-55.2 1393.6,53.8 1913.2,509.1 -543.9,-191.9 -1142.6,-251.9 -1701,-82.9 -1035.6,313 -1993.2,890.3 -2736.2,1677.9 85.7,-182.6 234.9,-321.1 342.4,-489.7 -1423.1,1007.5 -2019.3,2919.3 -3721.4,3590.2 -953.72,454.3 -2030.97,-130.3 -2532.3,-972.6 -740.1,-1147 -1010.86,-2592.9 -782.71,-3933.1 143.83,-605 542.96,-1103 771.58,-1674 -632.1,659.7 -1139.23,1521.4 -1155.23,2458.6 -32.45,928.6 141.93,1869.7 547.82,2708.6"
         style="fill:#e7a911;fill-opacity:1;fill-rule:nonzero;stroke:none"
         transform="matrix(0.13333333,0,0,-0.13333333,0,5133.7067)" />
      <path
         id="path4"
         d="m 15623.1,35390.9 c 284.8,206.4 614.1,347.9 948.4,453.4 291.5,-340.9 574.9,-731.9 980.8,-939.6 48.9,-34.9 96.9,-71.8 144.3,-109.5 132.7,-126.9 282.4,-233 436.9,-331.8 -29.5,-47 -58.6,-94.5 -87.1,-141.4 355,-76.1 711.5,22.7 1061.2,80.4 -88.7,-117.3 -174.4,-237.4 -277.1,-343 -628.2,-299.8 -1423.1,-374.4 -2025.1,26.2 -478.5,352.6 -748.8,905.3 -1182.3,1305.3"
         style="fill:#65471a;fill-opacity:1;fill-rule:nonzero;stroke:none"
         transform="matrix(0.13333333,0,0,-0.13333333,0,5133.7067)" />
      <path
         id="path5"
         d="m 17552.3,34904.7 c -22.3,442.2 511.9,441.2 824.4,424.2 484.8,-37.7 1078.2,124.5 1470.5,-239.2 -589.4,-437.9 -1468.6,-567.2 -2150.6,-294.5 -47.4,37.7 -95.4,74.6 -144.3,109.5"
         style="fill:#141313;fill-opacity:1;fill-rule:nonzero;stroke:none"
         transform="matrix(0.13333333,0,0,-0.13333333,0,5133.7067)" />
      <path
         id="path6"
         d="m 31476.9,35182.2 c 627.7,-308.5 1041.4,-962.9 1180.4,-1635.7 4.4,-838 -583.2,-1533.5 -1386.7,-1725.8 -90.1,60.5 -179.7,120.1 -266,185 514.4,169 1088.9,462.6 1230.8,1033.6 212.2,800.2 -217.9,1582.5 -758.5,2142.9"
         style="fill:#e7a911;fill-opacity:1;fill-rule:nonzero;stroke:none"
         transform="matrix(0.13333333,0,0,-0.13333333,0,5133.7067)" />
      <path
         id="path7"
         d="m 9998.05,34432.4 c 698.45,336.1 1501.55,471.3 2271.65,390.9 550.3,-59.1 850.6,-568.7 1283.6,-842.4 580.3,-338.5 1159.6,-681 1747.6,-1006.9 -580.2,45 -1023.9,-413.2 -1584.3,-438.4 -228.2,42.6 -454.9,90.1 -683,132.2 -373.9,75.1 -749.8,160.4 -1133.9,145.3 357,166.7 751.7,208.8 1141.2,204 -706.3,224.7 -1505.5,227.6 -2185.5,-90.1 970.2,989.1 2536.6,593.3 3679.3,150.1 -1105.4,738.2 -2533.3,1004.6 -3836.7,764.8 206.8,234 516.3,294 799.7,378.8 -591.9,26.7 -1186.3,-106.1 -1736.01,-320.1 329.41,306.1 763.41,468.8 1190.61,587.5 -319.7,30 -638.4,-8.3 -954.25,-55.7"
         style="fill:#fdfceb;fill-opacity:1;fill-rule:nonzero;stroke:none"
         transform="matrix(0.13333333,0,0,-0.13333333,0,5133.7067)" />
      <path
         id="path8"
         d="m 20781.1,34557.8 c 372.4,87.2 849,25.7 1071.4,-321.6 39.7,-121.1 -114.8,-169.5 -194.7,-219.9 -705.2,-301.3 -1482.7,-456.3 -2249.9,-376.8 -84.3,3.9 -143.4,62.5 -193.8,123 375.9,482.9 1004.6,640.3 1567,795.3"
         style="fill:#141313;fill-opacity:1;fill-rule:nonzero;stroke:none"
         transform="matrix(0.13333333,0,0,-0.13333333,0,5133.7067)" />
      <path
         id="path9"
         d="m 25080.8,34470.2 c 106.1,-33 214.1,-67.8 303.2,-137.6 962,-758 1868.2,-1593.6 2634.5,-2551.2 69.8,-99.7 171.5,-171.9 295,-185 -587.1,-184.5 -956.6,296 -1371.7,612.3 -515.9,835.5 -1198.9,1546.1 -1861,2261.5"
         style="fill:#ad721d;fill-opacity:1;fill-rule:nonzero;stroke:none"
         transform="matrix(0.13333333,0,0,-0.13333333,0,5133.7067)" />
      <path
         id="path10"
         d="m 22937.5,33960.6 c 307.1,274.7 782.7,197.2 1145.5,83.8 441.8,-119.2 991.1,-426.2 968.3,-945.9 -812.3,-161.4 -1484.2,454.7 -2113.8,862.1"
         style="fill:#141313;fill-opacity:1;fill-rule:nonzero;stroke:none"
         transform="matrix(0.13333333,0,0,-0.13333333,0,5133.7067)" />
      <path
         id="path11"
         d="m 31270.6,31820.7 c 803.5,192.3 1391.1,887.8 1386.7,1725.8 82.4,-481 -10.6,-981.9 -235.9,-1412.9 260.6,137.1 495.1,316.7 741.1,477.6 -189.3,-494.6 -692.6,-711.1 -1103.4,-981.8 120.1,-293.1 485.8,-326.5 760.5,-319.2 -182.1,-158.4 -357.5,-346.4 -592.4,-423.9 -208.3,137.1 -342.9,359.9 -544.9,507.2 115.2,-6.3 231.1,-11.2 347.3,-9.2 -216.5,203.9 -519.7,267.3 -759,436.4"
         style="fill:#fdfceb;fill-opacity:1;fill-rule:nonzero;stroke:none"
         transform="matrix(0.13333333,0,0,-0.13333333,0,5133.7067)" />
      <path
         id="path12"
         d="m 21448,32876.1 c 618.6,351.2 1423.1,241.2 2026.2,-89.1 -532.8,-462.6 -1335.4,-657.3 -2041.7,-606.9 -414.1,19.4 -208.3,550.7 15.5,696"
         style="fill:#141313;fill-opacity:1;fill-rule:nonzero;stroke:none"
         transform="matrix(0.13333333,0,0,-0.13333333,0,5133.7067)" />
      <path
         id="path13"
         d="m 15300.9,32974 c 120.2,-31.5 223.8,-105.6 331.8,-164.7 -475.1,1.4 -919.3,-182.6 -1368.8,-310.5 -183.1,-24.7 -367.6,-0.5 -547.3,36.8 560.4,25.2 1004.1,483.4 1584.3,438.4"
         style="fill:#aca175;fill-opacity:1;fill-rule:nonzero;stroke:none"
         transform="matrix(0.13333333,0,0,-0.13333333,0,5133.7067)" />
      <path
         id="path14"
         d="m 18768.1,32358.3 c 303.2,491.7 1138.7,851.5 1533,293.6 -199.1,-111 -433.5,-206.4 -523.6,-435.5 -202.5,-372 -641.8,-548.8 -1013.8,-698.5 -359.9,131.3 -214.6,632.6 4.4,840.4"
         style="fill:#141313;fill-opacity:1;fill-rule:nonzero;stroke:none"
         transform="matrix(0.13333333,0,0,-0.13333333,0,5133.7067)" />
      <path
         id="path15"
         d="m 27830.6,32778.3 c 549.3,195.2 1149.4,-86.2 1579.5,-428.7 142,-131.7 358.9,-259.6 312.4,-486.3 -401.1,-25.7 -760.5,200.1 -1156.6,231 -310.5,102.2 -723.7,313.9 -735.3,684"
         style="fill:#141313;fill-opacity:1;fill-rule:nonzero;stroke:none"
         transform="matrix(0.13333333,0,0,-0.13333333,0,5133.7067)" />
      <path
         id="path16"
         d="m 13033.6,32667.8 c 228.1,-42.1 454.8,-89.6 683,-132.2 179.7,-37.3 364.2,-61.5 547.3,-36.8 -547.8,-540.6 -1443.9,-601.1 -2091.5,-208.8 351.6,137.6 756.6,33 1127.6,96.4 -338.1,68.3 -685.4,28.6 -1027.8,42.7 239.2,129.3 529.4,92.9 761.4,238.7"
         style="fill:#473721;fill-opacity:1;fill-rule:nonzero;stroke:none"
         transform="matrix(0.13333333,0,0,-0.13333333,0,5133.7067)" />
      <path
         id="path17"
         d="m 23083.8,32070.1 c 344.8,360.9 904.8,229.6 1351.8,237.8 357.5,-77.5 772.1,-264 925.7,-617 -392.4,-221.4 -878.2,-102.7 -1299.6,-34.4 -338.6,90.5 -734.8,134.1 -977.9,413.6"
         style="fill:#141313;fill-opacity:1;fill-rule:nonzero;stroke:none"
         transform="matrix(0.13333333,0,0,-0.13333333,0,5133.7067)" />
      <path
         id="path18"
         d="m 20261.4,31882.7 c 224.7,115.8 473.2,-104.2 412.6,-343.5 -35.3,-843.2 -1046.2,-1228.3 -1763.1,-1116 30.5,736.8 738.7,1194.1 1350.5,1459.5"
         style="fill:#141313;fill-opacity:1;fill-rule:nonzero;stroke:none"
         transform="matrix(0.13333333,0,0,-0.13333333,0,5133.7067)" />
      <path
         id="path19"
         d="m 29882.4,31515 c -111.9,174.9 157.4,275.2 285.7,188 333.8,-158.4 644.7,-400.1 848.2,-711.6 -442.7,-103.6 -845.3,228.2 -1133.9,523.6"
         style="fill:#141313;fill-opacity:1;fill-rule:nonzero;stroke:none"
         transform="matrix(0.13333333,0,0,-0.13333333,0,5133.7067)" />
      <path
         id="path20"
         d="m 17490.3,31209.9 c 257.7,103.7 644.7,375.4 879.6,130.8 20.8,-507.2 -312.9,-1039.5 -787.1,-1238.1 -189.4,-77.5 -248,-326.9 -458.2,-367.6 -140,494.5 -216.5,1237.6 365.7,1474.9"
         style="fill:#141313;fill-opacity:1;fill-rule:nonzero;stroke:none"
         transform="matrix(0.13333333,0,0,-0.13333333,0,5133.7067)" />
      <path
         id="path21"
         d="m 15181.3,30889.7 c 419.5,385.6 1026.4,526 1583.4,488.8 -253.3,-123.6 -541.1,-170.5 -774.5,-336.2 76,-32.4 152.1,-64.9 228.1,-98.3 -402.5,-393.8 -697.5,-897.6 -1163.4,-1224 -98.3,-87.2 -309.1,-115.3 -329.4,56.6 -109.4,445.2 286.3,780.4 589.5,1035.1 -33.4,19.9 -100.3,58.7 -133.7,78"
         style="fill:#141313;fill-opacity:1;fill-rule:nonzero;stroke:none"
         transform="matrix(0.13333333,0,0,-0.13333333,0,5133.7067)" />
      <path
         id="path22"
         d="m 25934.3,30969.6 c 377.8,431.6 1325.2,152.1 1550.4,-343.9 -522.6,-143.8 -1092.2,95.5 -1550.4,343.9"
         style="fill:#141313;fill-opacity:1;fill-rule:nonzero;stroke:none"
         transform="matrix(0.13333333,0,0,-0.13333333,0,5133.7067)" />
      <path
         id="path23"
         d="m 21245.6,31141.6 c 186,-270.3 439.8,-505.7 534.7,-828.8 -544.4,-51.8 -909.6,-962.4 -340.5,-1234.1 558,-264.5 1194.5,-99.3 1787.8,-167.1 -324.5,-74.7 -495.5,-417.1 -817.6,-510.6 -404.9,5.3 -810.8,-10.2 -1210.4,-78.4 -403,-36.3 -567.7,-817.2 -49,-811.9 -437.3,-214 -825.3,-511.5 -1235.1,-772 210.2,-143.4 454.9,-217.5 688.3,-313.4 -25.2,-17.9 -75.6,-53.3 -100.7,-71.2 -472.3,63.5 -1023,423.3 -911.2,967.3 202,768.7 981.9,1202.6 1713.2,1350.9 -871.3,75.6 -1729.1,-445.6 -1996.5,-1290.4 -414.6,-409.8 -732.4,-913.5 -1020,-1418.2 -264.5,-545.4 -225.8,-1246.3 -745.1,-1650.7 -68.7,-67.9 -138.9,-135.2 -207.2,-203.5 276.6,119.7 574.4,172.4 875.7,142.4 128.4,-215 232.5,-449 412.7,-628.2 -66.4,372 -287.2,745.9 -154,1129.1 170.4,527.9 823.9,805.4 1330,590.4 -268.8,-99.8 -554.6,-134.6 -827.3,-217 -287.2,-91.6 -493.1,-456.2 -330.8,-733.8 153.1,-203.5 424.3,-247.5 650,-331.3 -408.8,-42.6 -519.7,-423.4 -403.9,-772.1 -317.3,210.2 -581.3,495.1 -903.4,695.1 -371.5,63.4 -739.6,-96.9 -1107.2,-136.6 268.3,494.5 617,1027.8 453.8,1618.7 162.7,129.3 404.4,257.7 400.6,494.1 -38.3,254.3 -337.6,308.6 -540.6,376.8 85.2,300.8 237.4,575 413.7,830.7 866.5,-697.5 2041.6,694.1 1509.3,1545.6 661.6,108.6 1273.4,448.1 1695.2,972.2 390.9,371.5 593.9,926.1 435.5,1456"
         style="fill:#ad721d;fill-opacity:1;fill-rule:nonzero;stroke:none"
         transform="matrix(0.13333333,0,0,-0.13333333,0,5133.7067)" />
      <path
         id="path24"
         d="m 28069.9,31069.9 c 109.9,64 236.8,51.4 356.9,28.6 715,-1048.7 1390.2,-2147.7 1660.5,-3405.1 7.2,-260.6 66.8,-518.3 213.6,-737.3 -17.5,-289.1 36.8,-577.8 4.4,-866.9 -69.4,92.4 -85.8,207.7 -106.6,317.7 -333.7,1697.7 -1148.9,3252.5 -2128.8,4663"
         style="fill:#65471a;fill-opacity:1;fill-rule:nonzero;stroke:none"
         transform="matrix(0.13333333,0,0,-0.13333333,0,5133.7067)" />
      <path
         id="path25"
         d="m 24918,30925.6 c 283.4,-342.5 467.5,-782.8 431.6,-1232.7 -32.9,-526.1 -419.4,-963 -402,-1498.7 -13,-463.6 272.7,-857.8 552.2,-1200.3 283.4,-340.5 583.2,-770.6 378.8,-1230.8 -14.1,9.2 -42.7,28.1 -57.2,37.8 -96.4,592.4 -764.8,760.5 -1116,1172.7 -78.9,98.3 -154,200 -226.6,303.2 -173.5,295 -371.1,610.8 -331.4,969.2 39.3,700.9 685.9,1152.4 839.5,1815.5 81.3,287.7 9.6,585.1 -68.9,864.1"
         style="fill:#141313;fill-opacity:1;fill-rule:nonzero;stroke:none"
         transform="matrix(0.13333333,0,0,-0.13333333,0,5133.7067)" />
      <path
         id="path26"
         d="m 29342.8,30598.6 c 341.9,302.3 1028.3,79.9 1158.6,-362.8 -347.3,-224.7 -1265.7,-228.1 -1158.6,362.8"
         style="fill:#141313;fill-opacity:1;fill-rule:nonzero;stroke:none"
         transform="matrix(0.13333333,0,0,-0.13333333,0,5133.7067)" />
      <path
         id="path27"
         d="m 8372.53,30394.2 c 367.63,426.7 1057.87,263.5 1253.54,-245.6 329.85,-536.7 90.59,-1589.2 894.13,-1703 -265.4,-267.9 -666.49,-488.2 -1047.19,-338.6 -336.15,125 -473.71,494.5 -528.45,820 -89.6,520.3 -244.61,1043.8 -572.03,1467.2"
         style="fill:#e7a911;fill-opacity:1;fill-rule:nonzero;stroke:none"
         transform="matrix(0.13333333,0,0,-0.13333333,0,5133.7067)" />
      <path
         id="path28"
         d="m 21780.3,30312.8 c 536.2,53.3 1135.4,50.9 1597.5,-263 458.2,-260.6 452.9,-1090.3 -150.2,-1138.2 -593.3,67.8 -1229.8,-97.4 -1787.8,167.1 -569.1,271.7 -203.9,1182.3 340.5,1234.1"
         style="fill:#141313;fill-opacity:1;fill-rule:nonzero;stroke:none"
         transform="matrix(0.13333333,0,0,-0.13333333,0,5133.7067)" />
      <path
         id="path29"
         d="m 26816.8,30265.9 c 602.5,148.6 1048.7,-469.4 1209.5,-958.6 -428.2,20.3 -895.6,199.5 -1213.4,493.1 -94.9,123 -222.3,419 3.9,465.5"
         style="fill:#141313;fill-opacity:1;fill-rule:nonzero;stroke:none"
         transform="matrix(0.13333333,0,0,-0.13333333,0,5133.7067)" />
      <path
         id="path30"
         d="m 30063.5,29826.5 c 404.4,84.8 631.7,-379.2 675.3,-709.6 -250.5,-87.7 -526.1,-107 -785.7,-53.3 -423.4,48.5 -244.1,742.6 110.4,762.9"
         style="fill:#141313;fill-opacity:1;fill-rule:nonzero;stroke:none"
         transform="matrix(0.13333333,0,0,-0.13333333,0,5133.7067)" />
      <path
         id="path31"
         d="m 15285.5,29212.3 c 309.5,73.7 426.7,-363.2 452.4,-602.5 1.4,-589.5 -449.6,-1050.1 -824,-1457.5 -358.4,-406.8 -976,-93 -1283.6,219.4 -212.1,383.2 295.5,524.1 543.5,666 511,241.3 779.8,753.3 1111.7,1174.6"
         style="fill:#141313;fill-opacity:1;fill-rule:nonzero;stroke:none"
         transform="matrix(0.13333333,0,0,-0.13333333,0,5133.7067)" />
      <path
         id="path32"
         d="m 25824.3,28686.3 c 65.4,188 199.1,425.8 435,389 -124.5,-670.9 63,-1325.3 252.3,-1956.4 -498.4,315.3 -860.2,970.7 -687.3,1567.4"
         style="fill:#fdfceb;fill-opacity:1;fill-rule:nonzero;stroke:none"
         transform="matrix(0.13333333,0,0,-0.13333333,0,5133.7067)" />
      <path
         id="path33"
         d="m 26667.6,28930 c 356.5,197.1 838.9,-80 957.2,-449.5 161.2,-335.2 -63.1,-702.4 72.6,-1041.9 47.9,-147.3 47.9,-429.2 -164.2,-427.2 -488.7,55.7 -917.4,600.6 -730.9,1089.8 155.5,291.6 89.1,597.2 -134.7,828.8"
         style="fill:#141313;fill-opacity:1;fill-rule:nonzero;stroke:none"
         transform="matrix(0.13333333,0,0,-0.13333333,0,5133.7067)" />
      <path
         id="path34"
         d="m 18584.5,28905.7 c 197.1,167.7 447.1,16 530.4,-192.3 532.3,-851.5 -642.8,-2243.1 -1509.3,-1545.6 -326,121.6 -462.6,542.1 -231.1,814.8 329.9,390.3 808,616.5 1210,923.1"
         style="fill:#141313;fill-opacity:1;fill-rule:nonzero;stroke:none"
         transform="matrix(0.13333333,0,0,-0.13333333,0,5133.7067)" />
      <path
         id="path35"
         d="m 19308.6,27381.9 c 267.4,844.8 1125.2,1366 1996.5,1290.4 -731.3,-148.3 -1511.2,-582.2 -1713.2,-1350.9 -111.8,-544 438.9,-903.8 911.2,-967.3 247.4,-52.8 499.3,-87.2 752.7,-89.6 1302.4,-82.9 2680.9,0.5 3862.3,-658.3 158.9,-99.3 330.3,-176.8 505.7,-242.2 223.3,-177.7 380.3,-431.5 400.6,-720.7 -109,63 -214.6,131.7 -318.7,202 306.1,-771.2 485.7,-1737 1250.1,-2194.7 234,-114.3 476.2,-210.2 720.8,-300.3 -190.9,-72.7 -385.6,-132.3 -583.2,-180.2 152.6,-78 300.3,-164.7 443.2,-260.1 -107.1,3.4 -213.6,7.3 -319.7,10.6 343.9,-534.7 855.9,-969.2 1122.3,-1544.6 -102.2,102.7 -208.3,201 -315.4,298.4 -455.8,450.9 -927,922.2 -1489.4,1232.7 -242.2,-326 -352.1,-728.5 -604.5,-1047.2 -7.3,268.8 2.5,537.6 -10.6,806 -218.5,-216.6 -341.5,-550.3 -654.4,-652 19.8,331.8 175.3,652.4 108.9,987.6 -33.4,127.4 -118.6,233 -219.8,313.4 -606.9,305.6 -1322.4,296.5 -1934.6,600.6 -1054.5,431.6 -1714.2,1415.8 -2651.5,2020.3 -235.4,171 -494.5,308.1 -767.2,407.4 -506.1,215 -1159.6,-62.5 -1330,-590.4 -133.2,-383.2 87.6,-757.1 154,-1129.1 -180.2,179.2 -284.3,413.2 -412.7,628.2 -301.3,30 -599.1,-22.7 -875.7,-142.4 68.3,68.3 138.5,135.6 207.2,203.5 161.9,21.2 320.2,62.9 471.8,123 202.5,1075.3 876.3,1958.8 1293.3,2945.9"
         style="fill:#141313;fill-opacity:1;fill-rule:nonzero;stroke:none"
         transform="matrix(0.13333333,0,0,-0.13333333,0,5133.7067)" />
      <path
         id="path36"
         d="m 31945.3,28482.4 c 214.6,82.4 428.7,-144.8 579.3,-283.4 453.9,-449.4 407.8,-1202.2 29.1,-1684.1 -30.1,-2.4 -90.6,-7.3 -120.6,-9.7 178.7,707.7 -111.4,1393.5 -487.8,1977.2"
         style="fill:#fdfceb;fill-opacity:1;fill-rule:nonzero;stroke:none"
         transform="matrix(0.13333333,0,0,-0.13333333,0,5133.7067)" />
      <path
         id="path37"
         d="m 21199.6,28322.6 c 399.6,68.2 805.5,83.7 1210.4,78.4 221.9,-706.2 -707.2,-1033.1 -1259.4,-890.3 -518.7,-5.3 -354,775.6 49,811.9"
         style="fill:#141313;fill-opacity:1;fill-rule:nonzero;stroke:none"
         transform="matrix(0.13333333,0,0,-0.13333333,0,5133.7067)" />
      <path
         id="path38"
         d="m 31037.1,28366.1 c 634.5,-93.4 1129.1,-748.3 1142.7,-1382.3 56.1,-295 -376.9,-504.7 -580.3,-289.2 -346.9,258.7 -98.4,785.6 -430.1,1067.5 -155.5,134.7 -449.5,493.6 -132.3,604"
         style="fill:#141313;fill-opacity:1;fill-rule:nonzero;stroke:none"
         transform="matrix(0.13333333,0,0,-0.13333333,0,5133.7067)" />
      <path
         id="path39"
         d="m 30230.6,28326.9 c 474.7,-34.4 256.7,-589.5 371.1,-887.4 143.8,-228.1 32.4,-671.3 -300.8,-483.4 -146.8,219 -206.4,476.7 -213.6,737.3 44.5,212.1 96.8,421.8 143.3,633.5"
         style="fill:#141313;fill-opacity:1;fill-rule:nonzero;stroke:none"
         transform="matrix(0.13333333,0,0,-0.13333333,0,5133.7067)" />
      <path
         id="path40"
         d="m 23287.2,28218 c 454.3,163.2 519.7,-485.9 511,-791.1 -198.6,-189.8 -712.5,-108.4 -673.7,231.6 17.9,184.1 -18.4,450 162.7,559.5"
         style="fill:#141313;fill-opacity:1;fill-rule:nonzero;stroke:none"
         transform="matrix(0.13333333,0,0,-0.13333333,0,5133.7067)" />
      <path
         id="path41"
         d="m 28706.8,28233.4 c 529.9,-286.2 910.6,-1033.6 829.7,-1654.6 0.5,-218.4 -281.9,-171.4 -337.1,-9.2 -145.8,328.4 -406.4,624.4 -393.8,1002.2 -29.5,223.8 -413.1,478 -98.8,661.6"
         style="fill:#141313;fill-opacity:1;fill-rule:nonzero;stroke:none"
         transform="matrix(0.13333333,0,0,-0.13333333,0,5133.7067)" />
      <path
         id="path42"
         d="m 33942.8,27529.7 c 281,-458.8 -9.1,-1095.2 -469.3,-1304.5 225.7,405.9 511,812.8 469.3,1304.5"
         style="fill:#65471a;fill-opacity:1;fill-rule:nonzero;stroke:none"
         transform="matrix(0.13333333,0,0,-0.13333333,0,5133.7067)" />
      <path
         id="path43"
         d="m 18288.6,25963.7 c 287.6,504.7 605.4,1008.4 1020,1418.2 -417,-987.1 -1090.8,-1870.6 -1293.3,-2945.9 -151.6,-60.1 -309.9,-101.8 -471.8,-123 519.3,404.4 480.6,1105.3 745.1,1650.7"
         style="fill:#473721;fill-opacity:1;fill-rule:nonzero;stroke:none"
         transform="matrix(0.13333333,0,0,-0.13333333,0,5133.7067)" />
      <path
         id="path44"
         d="m 24478.8,27276.8 c 72.6,-103.2 147.7,-204.9 226.6,-303.2 51.9,-458.2 478.6,-767.2 555.6,-1222.6 -73.1,-20.8 -146.3,-42.1 -218.4,-63.4 -221.9,170 -477.1,292.6 -733.8,399.6 65.8,28.6 132.2,56.7 198.5,84.3 -55.2,69.2 -109.4,139 -167.1,205.8 108.1,-61 221.4,-111.4 337.1,-156 -547.3,489.8 -1287,726.6 -2009.1,797.3 681,259.1 1385.7,-105.6 1983.4,-416 4.9,237.3 -100.2,454.3 -172.8,674.2"
         style="fill:#ad721d;fill-opacity:1;fill-rule:nonzero;stroke:none"
         transform="matrix(0.13333333,0,0,-0.13333333,0,5133.7067)" />
      <path
         id="path45"
         d="m 28159,27145.1 c 482.4,-181.7 470.3,-957.6 205.3,-1331.6 -213.5,-349.2 -828.7,-24.2 -688.7,342.5 191.3,314.3 364.2,638.9 483.4,989.1"
         style="fill:#141313;fill-opacity:1;fill-rule:nonzero;stroke:none"
         transform="matrix(0.13333333,0,0,-0.13333333,0,5133.7067)" />
      <path
         id="path46"
         d="m 21660.2,26959.5 c 330.8,74.1 671.8,44.1 1008,59.1 722.1,-70.7 1461.8,-307.5 2009.1,-797.3 -115.7,44.6 -229,95 -337.1,156 -816.7,434.5 -1760.2,609.4 -2680,582.2"
         style="fill:#fdfceb;fill-opacity:1;fill-rule:nonzero;stroke:none"
         transform="matrix(0.13333333,0,0,-0.13333333,0,5133.7067)" />
      <path
         id="path47"
         d="m 25499.8,26993.9 c 459.2,-309.5 987.2,-465.9 1515.6,-609.3 65.9,-867.5 929.5,-1490.9 1776.2,-1296.6 -256.2,-350.2 -548.8,-671.9 -817.2,-1012.9 242.2,2.9 482.5,40.2 718.9,92 -96.9,-107.5 -193.3,-215 -288.7,-323.5 327.9,72.6 643.7,193.3 976.9,242.2 -321.1,-315.3 -598.7,-670.9 -838.4,-1051.6 180.7,25.7 361.4,49.4 543,66.4 -72.7,-103.2 -146.8,-205.4 -227.2,-302.8 -256.2,-15.5 -521.7,-1.4 -750.3,126.5 62,21.3 126,42.1 189.4,62.5 -151.6,40.1 -299.8,90 -443.7,150.6 -45.5,1181.9 -926.6,2171.9 -1975.7,2625.7 204.4,460.2 -95.4,890.3 -378.8,1230.8"
         style="fill:#ad721d;fill-opacity:1;fill-rule:nonzero;stroke:none"
         transform="matrix(0.13333333,0,0,-0.13333333,0,5133.7067)" />
      <path
         id="path48"
         d="m 25261,25751 c -77,455.4 -503.7,764.4 -555.6,1222.6 351.2,-412.2 1019.6,-580.3 1116,-1172.7 14.5,-9.7 43.1,-28.6 57.2,-37.8 1049.1,-453.8 1930.2,-1443.8 1975.7,-2625.7 143.9,-60.6 292.1,-110.5 443.7,-150.6 -63.4,-20.4 -127.4,-41.2 -189.4,-62.5 228.6,-127.9 494.1,-142 750.3,-126.5 -106.6,-130.3 -225.2,-257.2 -383.6,-324.5 -149.2,-64.4 -293.5,-140.4 -426.2,-234.4 297.8,-415.6 773.9,-667.5 1260.2,-795.4 -27.1,-24.7 -53.7,-49.4 -80.4,-74.5 -22.2,-2.5 -67.3,-7.3 -90,-9.8 -413.7,1.5 -827.3,31.6 -1241,3.4 111.4,-177.7 242.7,-341.4 372,-506.1 203,-398.7 480,-753.7 683,-1151.9 -106.1,90.1 -209.8,184.1 -303.7,287.3 -110,122.5 -215.1,249.4 -310,384.1 -266.4,575.4 -778.4,1009.9 -1122.3,1544.6 106.1,-3.3 212.6,-7.2 319.7,-10.6 -142.9,95.4 -290.6,182.1 -443.2,260.1 197.6,47.9 392.3,107.5 583.2,180.2 -244.6,90.1 -486.8,186 -720.8,300.3 513.5,90.6 551.2,739.1 437.4,1144.1 -264.4,753.6 -920.3,1538.8 -1769.4,1569.3 -175.4,65.4 -346.8,142.9 -505.7,242.2 -18.9,20.3 -56.7,61 -75.5,81.4 72.1,21.3 145.3,42.6 218.4,63.4"
         style="fill:#65471a;fill-opacity:1;fill-rule:nonzero;stroke:none"
         transform="matrix(0.13333333,0,0,-0.13333333,0,5133.7067)" />
      <path
         id="path49"
         d="m 31552,25519.5 c -536.7,-12.6 -978,895.1 -481.4,1186.7 236.8,-306.6 736.7,-769.6 481.4,-1186.7"
         style="fill:#141313;fill-opacity:1;fill-rule:nonzero;stroke:none"
         transform="matrix(0.13333333,0,0,-0.13333333,0,5133.7067)" />
      <path
         id="path50"
         d="m 33233.2,25959.8 c 507.7,156.5 944.1,462.6 1387.3,744 -231.1,-557.5 -739.7,-910.6 -1139.8,-1335.4 -161.7,-140 -343.8,-260.6 -475.1,-432.6 -237.8,-172.9 -477.6,-348.7 -667.5,-578.8 -96.9,684.9 433.6,1191.1 895.1,1602.8"
         style="fill:#ad721d;fill-opacity:1;fill-rule:nonzero;stroke:none"
         transform="matrix(0.13333333,0,0,-0.13333333,0,5133.7067)" />
      <path
         id="path51"
         d="m 15817.3,26493.6 c 444.1,296.4 925.1,-72.2 1374.6,-156.5 203,-68.2 502.3,-122.5 540.6,-376.8 3.8,-236.4 -237.9,-364.8 -400.6,-494.1 -564.3,-495.5 -1484.6,-592.8 -2002.9,20.9 -299.8,399.1 160.4,815.6 488.3,1006.5"
         style="fill:#141313;fill-opacity:1;fill-rule:nonzero;stroke:none"
         transform="matrix(0.13333333,0,0,-0.13333333,0,5133.7067)" />
      <path
         id="path52"
         d="m 13107.2,26429.6 c 318.7,-2.8 254.8,-480 550.7,-529.4 297.5,-66.3 699.5,-186.4 688.8,-564.3 -39.2,-422.3 -307.5,-838 -651.4,-1080.1 -496,-130.3 -1114.6,179.7 -1318.5,648.1 -21.8,557.5 220.9,1256.4 730.4,1525.7"
         style="fill:#141313;fill-opacity:1;fill-rule:nonzero;stroke:none"
         transform="matrix(0.13333333,0,0,-0.13333333,0,5133.7067)" />
      <path
         id="path53"
         d="m 32387.1,22925.2 c -681.5,1047.7 -682.1,2479.5 -50.4,3548.5 24.2,-222.3 -43.6,-440.3 -36.4,-662.6 -356,-928.1 -248,-1966 86.8,-2885.9"
         style="fill:#fdfceb;fill-opacity:1;fill-rule:nonzero;stroke:none"
         transform="matrix(0.13333333,0,0,-0.13333333,0,5133.7067)" />
      <path
         id="path54"
         d="m 21041.7,26382.2 c 1090.3,-27.6 2220.3,80.9 3267.1,-295 256.7,-107 511.9,-229.6 733.8,-399.6 18.8,-20.4 56.6,-61.1 75.5,-81.4 -1181.4,658.8 -2559.9,575.4 -3862.3,658.3 -72.2,37.7 -142.9,78 -214.1,117.7"
         style="fill:#fdfceb;fill-opacity:1;fill-rule:nonzero;stroke:none"
         transform="matrix(0.13333333,0,0,-0.13333333,0,5133.7067)" />
      <path
         id="path55"
         d="m 7488.07,23181.9 c 345.34,1126.2 1092.73,2140.5 2076.95,2790 -487.26,-621.4 -1132.91,-1212.3 -1226.89,-2041.1 119.16,8.2 238.33,16 356.98,31.5 -416.08,-238.8 -845.22,-460.6 -1207.04,-780.4"
         style="fill:#ad721d;fill-opacity:1;fill-rule:nonzero;stroke:none"
         transform="matrix(0.13333333,0,0,-0.13333333,0,5133.7067)" />
      <path
         id="path56"
         d="m 9024.97,24406 c 199.06,518.2 590.43,959 1030.23,1289.4 -367.62,-409.8 -727,-828.3 -1030.23,-1289.4"
         style="fill:#fdfceb;fill-opacity:1;fill-rule:nonzero;stroke:none"
         transform="matrix(0.13333333,0,0,-0.13333333,0,5133.7067)" />
      <path
         id="path57"
         d="m 21910.6,25668.2 c 301.3,35.8 604.5,0.5 903.9,-37.3 -21.9,-158.4 -41.2,-316.8 -44.1,-477.1 -191.4,168.6 -472.3,120.1 -707.2,145.3 -40.2,-78.5 -80.4,-156.9 -121.1,-235.4 l -13.1,-25.2 c -31,208.8 -40.2,420 -18.4,629.7"
         style="fill:#ad721d;fill-opacity:1;fill-rule:nonzero;stroke:none"
         transform="matrix(0.13333333,0,0,-0.13333333,0,5133.7067)" />
      <path
         id="path58"
         d="m 5790.83,25018.2 c 591.9,-58.2 990.04,513.4 1554.34,579.8 -8.23,-489.2 -221.36,-946.5 -362.8,-1408.6 -593.34,-1704.4 -707.64,-3600.3 -209.73,-5340.6 112.37,433.5 248.48,865 446.11,1268.1 92.52,-406.4 353.1,-791.5 258.18,-1223.1 -204.43,-1194 -44.56,-2428.6 367.15,-3562 370.07,-1012.4 619.51,-2070.7 1065.6,-3053.5 213.13,187.5 270.3,621.9 602.08,700.9 306.12,-96.9 488.24,-412.2 618.54,-688.3 217,-560.9 471.3,-1106.3 670.3,-1674 53.4,391.9 214.6,864.1 650.6,960 404.4,-239.2 561.8,-722.6 885.4,-1047.2 123,37.3 245.6,75.1 369.6,110 l 19.8,-9.3 c 16,-7.7 48.4,-22.2 64.4,-30 l 34,-16 c -143.9,-50.3 -290.2,-93.9 -437.4,-133.1 331.3,-423.3 845.7,-431.6 1335.4,-420.5 1127.1,-381.2 2058.6,-1510.2 2086.2,-2716.3 -233.5,33.4 -409.3,200.5 -616.2,296.9 73.2,-744.5 284.3,-1475.4 463.6,-2201 48.4,93 54.7,228.7 150.6,283.8 438.9,-203.9 566.2,-715.3 671.3,-1145 177.3,-713.9 621.5,-1310.7 978.5,-1939.4 -179.7,41.2 -317.7,167.1 -449.5,287.2 -752.2,683 -1496.2,1391.1 -2116.2,2197.6 -213.6,423.9 -673.8,721.3 -1146,688.3 -573.1,627.7 -1067.6,1330.1 -1620.7,1977.2 163.7,-109.5 347.3,-243.7 555,-172 623.4,-684.4 1358.2,-1253.5 2032.9,-1884.1 22.3,398.1 -198.1,757 -415,1072.9 -784.7,1095.6 -2082.4,1669.5 -2886.9,2749.7 -219.4,340 -413.1,697.5 -656.3,1021.1 -219.9,-289.2 -22.3,-612.8 44.5,-914.6 -329.8,440.3 -662.6,886.4 -804.97,1428.4 -212.64,-341.9 -320.18,-748.3 -250.44,-1149.9 -913.01,1146.6 -1429.84,2540.1 -2174.82,3791.2 -429.14,702.3 -750.26,1461.9 -990.52,2248 -5.81,-399.7 59.58,-795.8 64.91,-1195.5 -251.89,362.3 -374.42,794.4 -484.38,1216.3 -139.02,714 -91.06,1450.7 97.36,2150.6 -97.36,-147.7 -207.32,-286.7 -321.6,-421.9 -146.3,700.4 -212.16,1414.8 -223.32,2129.3 -185.02,-834.1 -534.26,-1621.1 -951.78,-2363.3 -152.09,606.5 -436.4,1181.5 -474.2,1814 -7.27,186 -7.27,371.5 -14.53,557.1 -22.27,-0.5 -66.83,-2 -89.11,-2.4 58.6,164.6 132.23,323.5 193.26,487.2 -259.63,-172.9 -392.83,-469.8 -630.16,-666.5 69.74,439.8 177.77,875.3 185.02,1322.8 -83.8,-43.1 -167.12,-87.6 -248,-136.6 -82.83,331.8 -248.49,672.4 -193.25,1019.7 297.37,1063.6 1036.54,1953.4 1940.37,2566.6 -715.41,43.1 -1313.14,-504.7 -1719.04,-1036.5 -233.94,-169.1 -511.49,-281 -756.58,-438.4 547.36,1010.5 1597.94,1556.3 2404.92,2321.1 148.69,-58.6 245.57,-256.7 433.49,-256.2"
         style="fill:#473721;fill-opacity:1;fill-rule:nonzero;stroke:none"
         transform="matrix(0.13333333,0,0,-0.13333333,0,5133.7067)" />
      <path
         id="path59"
         d="m 33480.7,25368.4 c 495.6,236.4 1049.7,224.2 1585.9,221.8 7.7,-101.2 12.6,-202.5 16,-304.1 -707.2,-22.3 -1445.9,40.2 -2077,-350.3 131.3,172 313.4,292.6 475.1,432.6"
         style="fill:#fdfceb;fill-opacity:1;fill-rule:nonzero;stroke:none"
         transform="matrix(0.13333333,0,0,-0.13333333,0,5133.7067)" />
      <path
         id="path60"
         d="m 25623.8,25364 c 849.1,-30.5 1505,-815.7 1769.4,-1569.3 113.8,-405 76.1,-1053.5 -437.4,-1144.1 -764.4,457.7 -944,1423.5 -1250.1,2194.7 104.1,-70.3 209.7,-139 318.7,-202 -20.3,289.2 -177.3,543 -400.6,720.7"
         style="fill:#aca175;fill-opacity:1;fill-rule:nonzero;stroke:none"
         transform="matrix(0.13333333,0,0,-0.13333333,0,5133.7067)" />
      <path
         id="path61"
         d="m 21942.1,25063.7 c 40.7,78.5 80.9,156.9 121.1,235.4 234.9,-25.2 515.8,23.3 707.2,-145.3 69.7,-416 308,-842.8 718.8,-1000.2 374.9,-124.5 772.5,85.2 966.7,409.8 87.8,-147.8 215.6,-262.6 356.1,-358.5 -333.2,-450.9 -853.5,-736.2 -1422.6,-695 -666,276.1 -1316,807.4 -1447.3,1553.8"
         style="fill:#e7a911;fill-opacity:1;fill-rule:nonzero;stroke:none"
         transform="matrix(0.13333333,0,0,-0.13333333,0,5133.7067)" />
      <path
         id="path62"
         d="m 30301.8,25271 c 306.6,-786.6 547.8,-1599.8 729,-2424.3 -481,711.6 -687.8,1575.7 -729,2424.3"
         style="fill:#141313;fill-opacity:1;fill-rule:nonzero;stroke:none"
         transform="matrix(0.13333333,0,0,-0.13333333,0,5133.7067)" />
      <path
         id="path63"
         d="m 24004.6,24771.6 c 81.8,144.4 178.2,283.4 320.1,374.5 391.4,-191.8 640.9,-613.8 566.7,-1049.2 -251.9,-512.4 -970.1,-1011.8 -1502,-587 569.1,-41.2 1089.4,244.1 1422.6,695 -140.5,95.9 -268.3,210.7 -356.1,358.5 -44.5,77 -98.2,153.5 -196.1,155.9 -83.8,23.3 -170,37.3 -255.2,52.3"
         style="fill:#473721;fill-opacity:1;fill-rule:nonzero;stroke:none"
         transform="matrix(0.13333333,0,0,-0.13333333,0,5133.7067)" />
      <path
         id="path64"
         d="m 19658.3,25103 c 475.2,-79.5 845.7,-420.9 1247.8,-660.3 -121.6,157 -325.6,276.2 -338.2,493.1 937.3,-604.5 1597,-1588.7 2651.5,-2020.3 612.2,-304.1 1327.7,-295 1934.6,-600.6 -475.7,-517.8 -1320,-324.5 -1922.5,-149.2 -1482.2,589.1 -2194.2,2183.1 -3573.2,2937.3"
         style="fill:#fdfceb;fill-opacity:1;fill-rule:nonzero;stroke:none"
         transform="matrix(0.13333333,0,0,-0.13333333,0,5133.7067)" />
      <path
         id="path65"
         d="m 16164.6,24783.3 c 506.1,227.1 850.5,-411.3 568.6,-805 -289.1,-395.3 47.5,-970.7 -291.1,-1315.6 -545.9,-137.6 -1018.6,543.4 -989.1,1040.9 156.5,389.5 326,869 711.6,1079.7"
         style="fill:#141313;fill-opacity:1;fill-rule:nonzero;stroke:none"
         transform="matrix(0.13333333,0,0,-0.13333333,0,5133.7067)" />
      <path
         id="path66"
         d="m 24004.6,24771.6 c 85.2,-15 171.4,-29 255.2,-52.3 l 62.5,-35.3 c -73.6,-254.8 -339.5,-134.7 -317.7,87.6"
         style="fill:#fdfceb;fill-opacity:1;fill-rule:nonzero;stroke:none"
         transform="matrix(0.13333333,0,0,-0.13333333,0,5133.7067)" />
      <path
         id="path67"
         d="m 32573.5,24165.2 c 444.7,325.5 1009,540.1 1565.5,465 15.5,-149.2 17.9,-300.3 -13.5,-447.5 -89.7,-9.8 -178.8,-19.9 -267.9,-27.7 -97.3,-506.6 -740.6,-794.3 -1061.7,-302.2 -90.6,-37.8 -181.7,-74.1 -272.7,-109 l -31.5,-11.6 c 0,144.8 -65.4,336.6 81.8,433"
         style="fill:#473721;fill-opacity:1;fill-rule:nonzero;stroke:none"
         transform="matrix(0.13333333,0,0,-0.13333333,0,5133.7067)" />
      <path
         id="path68"
         d="m 3709,23391.7 c 405.9,531.8 1003.63,1079.6 1719.04,1036.5 -903.83,-613.2 -1643,-1503 -1940.37,-2566.6 -134.68,-201.5 -299.83,-380.3 -470.32,-551.7 24.2,683.4 358.42,1300 731.87,1854.1 175.82,181.2 433.03,250.4 610.78,428.2 -225.22,-37.8 -433.03,-137 -651,-200.5"
         style="fill:#ad721d;fill-opacity:1;fill-rule:nonzero;stroke:none"
         transform="matrix(0.13333333,0,0,-0.13333333,0,5133.7067)" />
      <path
         id="path69"
         d="m 8795.86,24033 c 149.65,135.1 331.79,225.7 520.22,294 -517.31,-710.6 -611.28,-1613.4 -727.52,-2458.2 -59.11,-340 -214.59,-687.3 -125.95,-1034.1 4.35,-18 13.09,-53.8 17.93,-71.7 -279.48,293.5 -310,742.5 -305.17,1129.1 16,778.4 298.87,1534 774.02,2147.2 -38.27,-1.5 -115.26,-4.4 -153.53,-6.3"
         style="fill:#ad721d;fill-opacity:1;fill-rule:nonzero;stroke:none"
         transform="matrix(0.13333333,0,0,-0.13333333,0,5133.7067)" />
      <path
         id="path70"
         d="m 33496.7,24269.4 c 72.7,15.9 146.8,14.9 219,-5.9 -9.7,-64.4 -18.4,-129.8 -27.6,-194.7 -39.3,1 -117.7,3.9 -157,5.3 -12.1,64.9 -23.7,130.4 -34.4,195.3"
         style="fill:#d3cdb3;fill-opacity:1;fill-rule:nonzero;stroke:none"
         transform="matrix(0.13333333,0,0,-0.13333333,0,5133.7067)" />
      <path
         id="path71"
         d="m 34611.8,23586.9 c 112.8,239.7 -5.9,600.1 244.6,755.6 84.7,-557 204.4,-1186.2 -143.4,-1682.7 -280,-463.5 -837,-608.9 -1333.9,-702.3 -105.2,165.1 -188,341.9 -284.4,511.5 691.7,-34.9 1368.8,428.6 1517.1,1117.9"
         style="fill:#fdfceb;fill-opacity:1;fill-rule:nonzero;stroke:none"
         transform="matrix(0.13333333,0,0,-0.13333333,0,5133.7067)" />
      <path
         id="path72"
         d="m 34856.4,24342.5 c 195.2,35.9 199,-204.4 257.1,-332.8 126,-521.2 353.2,-1168.8 18.4,-1624.6 257.3,-310.4 51.4,-707.6 -12,-1053 -14.1,-253.3 -354.6,-215.5 -433.5,-433.5 -109.6,-176.8 26.1,-351.2 105.6,-505.7 -62.5,-282.4 -105.2,-567.7 -137.1,-855.4 -388,823.5 -780.4,1650.3 -1275.8,2420 496.9,93.4 1053.9,238.8 1333.9,702.3 347.8,496.5 228.1,1125.7 143.4,1682.7"
         style="fill:#e7a911;fill-opacity:1;fill-rule:nonzero;stroke:none"
         transform="matrix(0.13333333,0,0,-0.13333333,0,5133.7067)" />
      <path
         id="path73"
         d="m 33857.6,24155 c 89.1,7.8 178.2,17.9 267.9,27.7 -36.3,-369.2 -149.2,-779.9 -495.1,-976.6 -292,-208.7 -792.9,-221.8 -976,135.2 469.9,-244.6 1028.8,-51.8 1227.4,442.8 71.2,125.4 238.3,374.8 -24.2,370.9"
         style="fill:#65471a;fill-opacity:1;fill-rule:nonzero;stroke:none"
         transform="matrix(0.13333333,0,0,-0.13333333,0,5133.7067)" />
      <path
         id="path74"
         d="m 12204.4,24049.5 c 333.7,222.8 619.5,-218 805.9,-445.7 347.8,-430.6 -36.8,-960.9 -357,-1276.3 -447,-393.3 -1036.9,-598.7 -1627.4,-629.6 232,300.3 388,648.5 500.8,1008.9 189.4,461.1 341.5,964.8 677.7,1342.7"
         style="fill:#141313;fill-opacity:1;fill-rule:nonzero;stroke:none"
         transform="matrix(0.13333333,0,0,-0.13333333,0,5133.7067)" />
      <path
         id="path75"
         d="m 33857.6,24155 c 262.5,3.9 95.4,-245.5 24.2,-370.9 -198.6,-494.6 -757.5,-687.4 -1227.4,-442.8 -69.3,125 -136.6,255.8 -131.2,402.5 91,34.9 182.1,71.2 272.7,109 321.1,-492.1 964.4,-204.4 1061.7,302.2"
         style="fill:#e7a911;fill-opacity:1;fill-rule:nonzero;stroke:none"
         transform="matrix(0.13333333,0,0,-0.13333333,0,5133.7067)" />
      <path
         id="path76"
         d="m 8588.56,21868.8 c 500.34,1099.1 1438.54,2226.7 2752.64,2213.6 -556.6,-513.9 -911.6,-1178 -1162.9,-1885.2 420.4,231.5 849.1,513.5 1348.4,509.6 -112.8,-360.4 -268.8,-708.6 -500.8,-1008.9 590.5,30.9 1180.4,236.3 1627.4,629.6 413.2,-93 835.1,-148.2 1238.1,-281.4 -203.4,-275.6 -128.8,-726.1 234,-816.6 481.4,-139.6 1116.5,-665.6 1499.1,-76.6 532.3,-284.8 1089.3,-526.5 1624.6,-809.4 -194.7,-277.5 135.1,-483.4 371,-554.6 306.1,-90.1 673.3,-298.8 966.8,-70.7 81.9,-46.9 163.2,-94.9 240.8,-149.7 392.7,-365.1 930.9,-561.3 1455.5,-633 -525.6,-211.7 -1102,-219.5 -1658.1,-277.1 271.3,-306.2 609.4,-542.5 935.9,-785.6 171.4,-127.4 344.8,-255.7 542.5,-341 -250,-114.4 -489.3,71.7 -731.5,118.6 -1654.5,906.2 -3333.8,1771.4 -5010.7,2634.5 1092.2,-798.7 2279.4,-1466.1 3469.5,-2108.4 561.9,-560.5 1454.6,-855.4 1720,-1672.6 -651,5.4 -1276.8,251.9 -1929.2,233 227.1,-306.6 557,-507.6 815.1,-783.2 -936.7,64.9 -1883.6,75.1 -2801.1,300.3 -354.5,111.9 -644.6,-151.6 -864.1,-392.4 -299.8,266.9 -436.4,652.1 -640.3,986.7 -142,-893.2 86.2,-1778.1 380.2,-2614.1 -782.3,846.1 -1151.3,2127.8 -836.5,3251.1 -796.8,-279.1 -1556.8,-726.1 -2112.3,-1370.8 -281.5,-320.7 -431.1,-728.5 -682.5,-1070.4 -181.1,583.1 -169,1237.5 18.9,1817.2 387,67 882.5,260.2 877.2,729.1 70.7,465.5 -495.5,581.7 -625.3,961.9 -152.6,285.8 -163.7,681.5 -435.5,881.6 -739.14,-246.1 -794.82,-1170.7 -922.72,-1823.6 -202.46,-394.8 -294.49,-830.3 -386.04,-1260.9 -325,1207 158.89,2468.3 648.06,3570.3 45.1,73.2 102.7,137.1 152.1,206.8 80,110 146.8,229.2 211.2,348.8 -383.1,-121.6 -717.84,-346.9 -1063.65,-544.5 -154.54,317.3 -31.98,680.1 162.25,949.4 294.03,501.3 696.5,920.8 1093.2,1339.3 -531.3,-281.4 -919.29,-755.6 -1353.8,-1159.1 85.73,1122.8 699.92,2185.5 1593.1,2863.1 -1248.21,-552.6 -2069.23,-1793.1 -2386.49,-3088.8 -88.64,346.8 66.84,694.1 125.95,1034.1"
         style="fill:#fdfceb;fill-opacity:1;fill-rule:nonzero;stroke:none"
         transform="matrix(0.13333333,0,0,-0.13333333,0,5133.7067)" />
      <path
         id="path77"
         d="m 31268.2,23818.4 c 426.2,-983.3 946.4,-1923.4 1557.2,-2804.5 -778.8,739.6 -1424,1723.4 -1557.2,2804.5"
         style="fill:#fdfceb;fill-opacity:1;fill-rule:nonzero;stroke:none"
         transform="matrix(0.13333333,0,0,-0.13333333,0,5133.7067)" />
      <path
         id="path78"
         d="m 5802.94,23222.1 c 455.79,-888.3 -158.87,-1809.5 -449.01,-2644.1 -21.79,405.8 132.23,789.9 186.49,1187.1 -162.76,-278.5 -304.68,-1138.2 -738.19,-750.7 -325.98,364.2 -955.16,773.6 -687.33,1337.4 300.79,403.4 760.95,788 1278.76,819.5 323.55,-209.3 216.5,-664.5 247.98,-993 102.7,338.1 112.39,696.1 161.3,1043.8"
         style="fill:#141313;fill-opacity:1;fill-rule:nonzero;stroke:none"
         transform="matrix(0.13333333,0,0,-0.13333333,0,5133.7067)" />
      <path
         id="path79"
         d="m 2002.58,19658.6 c 196.65,1284.6 593.35,2756.1 1746.64,3505.4 -373.45,-554.1 -707.67,-1170.7 -731.87,-1854.1 170.49,171.4 335.64,350.2 470.32,551.7 -55.24,-347.3 110.42,-687.9 193.25,-1019.7 -451.93,-550.7 -765.79,-1233.6 -760.95,-1956.8 -206.83,669.9 -52.8,1407.6 266.41,2016.4 -512.48,-278 -865.08,-769.2 -1183.8,-1242.9"
         style="fill:#65471a;fill-opacity:1;fill-rule:nonzero;stroke:none"
         transform="matrix(0.13333333,0,0,-0.13333333,0,5133.7067)" />
      <path
         id="path80"
         d="m 14586,22976.5 c 143.9,180.3 406.9,139.6 574,16.5 342.4,-237.3 636.5,-565.2 795.8,-953.2 128.3,-333.8 -119.1,-652.4 -331.3,-886.9 -382.6,-589 -1017.7,-63 -1499.1,76.6 -362.8,90.5 -437.4,541 -234,816.6 207.4,326.4 445.1,635 694.6,930.4"
         style="fill:#141313;fill-opacity:1;fill-rule:nonzero;stroke:none"
         transform="matrix(0.13333333,0,0,-0.13333333,0,5133.7067)" />
      <path
         id="path81"
         d="m 18247.4,22659.3 c 370.1,-15.5 456.7,-482.9 629.2,-743.5 245,-251.4 622.9,-336.6 847.6,-613.2 78.5,-90.6 73.6,-290.2 -86.2,-271.2 -533.8,31.9 -1139.7,217.4 -1399.4,729.4 -154.5,258.6 -278.5,690.7 8.8,898.5"
         style="fill:#141313;fill-opacity:1;fill-rule:nonzero;stroke:none"
         transform="matrix(0.13333333,0,0,-0.13333333,0,5133.7067)" />
      <path
         id="path82"
         d="m 28049.1,22238.9 c 132.7,94 277,170 426.2,234.4 299.3,-465 795.8,-729 1236,-1037.5 -160.2,-26.2 -321.1,-50.4 -482.4,-66.8 26.7,25.1 53.3,49.8 80.4,74.5 -486.3,127.9 -962.4,379.8 -1260.2,795.4"
         style="fill:#ad721d;fill-opacity:1;fill-rule:nonzero;stroke:none"
         transform="matrix(0.13333333,0,0,-0.13333333,0,5133.7067)" />
      <path
         id="path83"
         d="m 25154,22314.9 c 101.2,-80.4 186.4,-186 219.8,-313.4 -8.7,-542.4 -463.5,-926.6 -663,-1403.7 236.3,84.8 473.2,180.2 727.5,193.8 -3.4,-198.6 -16.5,-397.2 -37.3,-594.9 161.8,210.3 311.4,429.7 476.1,637.5 7.3,-184.5 19.8,-370.6 64.5,-551.2 158.3,307.1 116.7,733.8 407.8,958.1 117.7,-255.3 186.9,-530.4 312.4,-782.7 103.6,254.2 143.9,544.9 339.6,751.6 371.5,-122 642.7,-435.4 1022.4,-535.6 107.1,-97.4 213.2,-195.7 315.4,-298.4 94.9,-134.7 200,-261.6 310,-384.1 -100.8,-0.5 -202,-0.5 -302.3,-0.5 851,-660.2 1597.5,-1607.6 1606.6,-2732.3 -296.3,232.5 -708,212.2 -1017.6,16.9 -69.7,18.4 -138,35.9 -206.8,53.8 -26.1,87.6 -53.3,174.8 -79.5,262 -122,-117.7 -200.5,-268.8 -258.6,-425.7 -387.5,233.5 -789.5,500.8 -1244.8,562.3 -364.3,-3.4 -244.7,-429.6 -207.3,-660.6 -648.1,81.3 -1332.6,-28.1 -1879.9,-399.7 -95.4,42.2 -191.3,83.3 -287.2,122.6 -479.6,-195.2 -982.8,172.9 -1473.4,4.3 46.5,496.5 42.1,998.3 -38.3,1491.4 -28.6,296 -87.2,590.9 -208.3,863.6 -88.1,-535.2 -325,-1026.8 -462.1,-1548.9 -502.8,285.7 -995.9,605.9 -1555.3,773.5 521.2,-504.3 951.3,-1187.7 826.8,-1945.3 -499.8,479.6 -1096.1,886.9 -1757.7,1102.5 -197.7,85.3 -371.1,213.6 -542.5,341 581.7,-114.3 1071.8,-477.1 1621.6,-679.1 -4.4,669.4 -495,1146.4 -993.4,1514.6 494.5,192.8 1244.8,-332.7 1550.9,227.6 619.5,-68.2 1210.9,200.1 1686.6,576.4 161.3,131.3 159.8,359 57.6,525.6 120.7,54.2 343.5,110.9 294.1,288.2 -190.4,403.5 -650.1,562.8 -915.5,902.4 666,-124 1405.7,-69.3 1978.7,321.6 -607,-202.9 -1279.8,-214.6 -1886.2,-4.3 91.5,171.9 275.6,234.9 451.5,283.8 -96,50.8 -190.9,102.2 -285.8,153.5 36.3,61 73.1,122.1 110.4,182.6 602.5,-175.3 1446.8,-368.6 1922.5,149.2"
         style="fill:#ad721d;fill-opacity:1;fill-rule:nonzero;stroke:none"
         transform="matrix(0.13333333,0,0,-0.13333333,0,5133.7067)" />
      <path
         id="path84"
         d="m 34820,22315.9 c 335.2,16.4 291.6,-447.1 171.5,-659.3 -94,-266.3 -448,-12.5 -427.2,186.5 53.2,171.5 151.6,327.5 255.7,472.8"
         style="fill:#141313;fill-opacity:1;fill-rule:nonzero;stroke:none"
         transform="matrix(0.13333333,0,0,-0.13333333,0,5133.7067)" />
      <path
         id="path85"
         d="m 19484.9,22334.3 c 547.9,-390.4 1120.3,-749.8 1757.8,-976 -176.8,-164.7 -433.5,-66.9 -619.5,28.1 -436.4,235.4 -828.3,562.3 -1138.3,947.9"
         style="fill:#141313;fill-opacity:1;fill-rule:nonzero;stroke:none"
         transform="matrix(0.13333333,0,0,-0.13333333,0,5133.7067)" />
      <path
         id="path86"
         d="m 21398.6,22257.7 c 565.8,-105.5 993,-572.4 1556.8,-711.9 606.4,-210.3 1279.2,-198.6 1886.2,4.3 -573,-390.9 -1312.7,-445.6 -1978.7,-321.6 -547.8,204.4 -1235.2,446.6 -1464.3,1029.2"
         style="fill:#141313;fill-opacity:1;fill-rule:nonzero;stroke:none"
         transform="matrix(0.13333333,0,0,-0.13333333,0,5133.7067)" />
      <path
         id="path87"
         d="m 9256,21060.4 c 434.51,403.5 822.5,877.7 1353.8,1159.1 -396.7,-418.5 -799.17,-838 -1093.2,-1339.3 -194.23,-269.3 -316.79,-632.1 -162.25,-949.4 345.81,197.6 680.55,422.9 1063.65,544.5 -64.4,-119.6 -131.2,-238.8 -211.2,-348.8 -636.92,-257.6 -1177,-727 -1609.53,-1254.5 73.15,648.1 257.2,1309.8 652.92,1837.7 -1.45,117.2 -0.47,234.4 5.81,350.7"
         style="fill:#aca175;fill-opacity:1;fill-rule:nonzero;stroke:none"
         transform="matrix(0.13333333,0,0,-0.13333333,0,5133.7067)" />
      <path
         id="path88"
         d="m 25373.8,22001.5 c 66.4,-335.2 -89.1,-655.8 -108.9,-987.6 312.9,101.7 435.9,435.4 654.4,652 13.1,-268.4 3.3,-537.2 10.6,-806 252.4,318.7 362.3,721.2 604.5,1047.2 562.4,-310.5 1033.6,-781.8 1489.4,-1232.7 -379.7,100.2 -650.9,413.6 -1022.4,535.6 -195.7,-206.7 -236,-497.4 -339.6,-751.6 -125.5,252.3 -194.7,527.4 -312.4,782.7 -291.1,-224.3 -249.5,-651 -407.8,-958.1 -44.7,180.6 -57.2,366.7 -64.5,551.2 -164.7,-207.8 -314.3,-427.2 -476.1,-637.5 20.8,197.7 33.9,396.3 37.3,594.9 -254.3,-13.6 -491.2,-109 -727.5,-193.8 199.5,477.1 654.3,861.3 663,1403.7"
         style="fill:#65471a;fill-opacity:1;fill-rule:nonzero;stroke:none"
         transform="matrix(0.13333333,0,0,-0.13333333,0,5133.7067)" />
      <path
         id="path89"
         d="m 33943.3,21615.9 c 275.6,331.4 741.1,-524 383.6,-619.5 -179.7,167.1 -283.8,399.2 -383.6,619.5"
         style="fill:#141313;fill-opacity:1;fill-rule:nonzero;stroke:none"
         transform="matrix(0.13333333,0,0,-0.13333333,0,5133.7067)" />
      <path
         id="path90"
         d="m 27897.9,21362.6 c 413.7,28.2 827.3,-1.9 1241,-3.4 -93,-21.8 -184.1,-49.3 -275.2,-77 -32.9,-323 60.6,-637.4 170.5,-937.7 -262,160.4 -437.8,475.6 -764.3,512 -129.3,164.7 -260.6,328.4 -372,506.1"
         style="fill:#ad721d;fill-opacity:1;fill-rule:nonzero;stroke:none"
         transform="matrix(0.13333333,0,0,-0.13333333,0,5133.7067)" />
      <path
         id="path91"
         d="m 21141.4,21116.6 c 335.7,-6.3 712.1,37.3 1011.4,-141.9 -137.1,-477.6 -1180.9,-393.3 -1011.4,141.9"
         style="fill:#141313;fill-opacity:1;fill-rule:nonzero;stroke:none"
         transform="matrix(0.13333333,0,0,-0.13333333,0,5133.7067)" />
      <path
         id="path92"
         d="m 3680.92,20841.9 c 80.88,49 164.2,93.5 248,136.6 -7.25,-447.5 -115.28,-883 -185.02,-1322.8 -277.55,-451.9 -507.63,-933.4 -646.16,-1448.2 -74.11,221.3 -144.34,446 -177.77,677.6 -4.84,723.2 309.02,1406.1 760.95,1956.8"
         style="fill:#ad721d;fill-opacity:1;fill-rule:nonzero;stroke:none"
         transform="matrix(0.13333333,0,0,-0.13333333,0,5133.7067)" />
      <path
         id="path93"
         d="m 31154.8,20744.6 c 970.7,-406 1617.8,-1416.8 1750.5,-2440.3 -418,917.9 -1019.1,1747.6 -1750.5,2440.3"
         style="fill:#fdfceb;fill-opacity:1;fill-rule:nonzero;stroke:none"
         transform="matrix(0.13333333,0,0,-0.13333333,0,5133.7067)" />
      <path
         id="path94"
         d="M 1068.23,11551.8 C -6.09375,14442 -217.289,17624.8 199.766,20667.1 21.0156,17607.3 229.313,14509.3 1068.23,11551.8"
         style="fill:#141313;fill-opacity:1;fill-rule:nonzero;stroke:none"
         transform="matrix(0.13333333,0,0,-0.13333333,0,5133.7067)" />
      <path
         id="path95"
         d="m 17249.1,20343.5 c 509,328.5 1271,-21.8 1337.8,-625.3 -293.5,-228.1 -660.7,-19.4 -966.8,70.7 -235.9,71.2 -565.7,277.1 -371,554.6"
         style="fill:#141313;fill-opacity:1;fill-rule:nonzero;stroke:none"
         transform="matrix(0.13333333,0,0,-0.13333333,0,5133.7067)" />
      <path
         id="path96"
         d="m 19193.3,20402.2 c 525.1,174.8 860.3,-428.2 1361.6,-437.5 160.3,-36.7 448,19.5 477.1,-205.3 31,-428.2 -371.5,-730.5 -748.8,-823.9 -524.6,71.7 -1062.8,267.9 -1455.5,633 -86.8,326.5 -5.4,738.7 365.6,833.7"
         style="fill:#141313;fill-opacity:1;fill-rule:nonzero;stroke:none"
         transform="matrix(0.13333333,0,0,-0.13333333,0,5133.7067)" />
      <path
         id="path97"
         d="m 12140.9,20382.3 c 491.2,68.3 988.1,-93.5 1434.7,-285.3 247.5,-134.7 30,-422.4 -112.3,-551.2 -460.7,-424.4 -1057,-853 -1711.3,-786.2 -540.6,448.6 -395.8,1520.5 388.9,1622.7"
         style="fill:#141313;fill-opacity:1;fill-rule:nonzero;stroke:none"
         transform="matrix(0.13333333,0,0,-0.13333333,0,5133.7067)" />
      <path
         id="path98"
         d="m 14361.3,20284.9 c 1676.9,-863.1 3356.2,-1728.3 5010.7,-2634.5 -546.8,39.3 -1025.8,360.4 -1541.2,526.1 -1190.1,642.3 -2377.3,1309.7 -3469.5,2108.4"
         style="fill:#141313;fill-opacity:1;fill-rule:nonzero;stroke:none"
         transform="matrix(0.13333333,0,0,-0.13333333,0,5133.7067)" />
      <path
         id="path99"
         d="m 21964.9,19956.5 c 480.5,173.9 1025.4,235.4 1519.4,81.4 102.2,-166.6 103.7,-394.3 -57.6,-525.6 -475.7,-376.3 -1067.1,-644.6 -1686.6,-576.4 -323,285.9 -171.9,883.1 224.8,1020.6"
         style="fill:#141313;fill-opacity:1;fill-rule:nonzero;stroke:none"
         transform="matrix(0.13333333,0,0,-0.13333333,0,5133.7067)" />
      <path
         id="path100"
         d="m 8791.98,16386.3 c -83.3,1273.8 390.9,2604.9 1262.72,3533.4 -489.17,-1102 -973.06,-2363.3 -648.06,-3570.3 91.55,430.6 183.58,866.1 386.04,1260.9 -123.49,-650.6 580.32,-940.7 1106.32,-749 -187.9,-579.7 -200,-1234.1 -18.9,-1817.2 251.4,341.9 401,749.7 682.5,1070.4 555.5,644.7 1315.5,1091.7 2112.3,1370.8 -314.8,-1123.3 54.2,-2405 836.5,-3251.1 -294,836 -522.2,1720.9 -380.2,2614.1 203.9,-334.6 340.5,-719.8 640.3,-986.7 219.5,240.8 509.6,504.3 864.1,392.4 917.5,-225.2 1864.4,-235.4 2801.1,-300.3 -258.1,275.6 -588,476.6 -815.1,783.2 652.4,18.9 1278.2,-227.6 1929.2,-233 -265.4,817.2 -1158.1,1112.1 -1720,1672.6 515.4,-165.7 994.4,-486.8 1541.2,-526.1 242.2,-46.9 481.5,-233 731.5,-118.6 661.6,-215.6 1257.9,-622.9 1757.7,-1102.5 -7.3,-99.8 -12.5,-199.5 -17,-299.8 -225.2,-11.6 -450.9,-27.1 -675.1,-48.4 54.7,-18.9 109.9,-37.8 166.1,-57.1 l -11.1,-16 c -214.6,-297.5 -378.4,-629.3 -616.2,-910.7 -1597.9,202.5 -3206,394.8 -4818.5,393.3 410.8,-63.9 828.3,-74 1239.5,-135.6 -542.5,-306.6 -1180.4,-575.4 -1515.5,-1127.1 -315.8,-89.2 -683,-1 -965.4,-186.1 342.4,-40.6 685.4,16 1026.9,44.7 163.2,-125 377.8,-113.4 561.8,-187.5 108.6,-159.8 -48.4,-356.5 -108.5,-510.5 26.7,-9.7 79,-28.6 105.6,-38.3 -444.6,-24.7 -883.4,-102.2 -1325.2,-154.5 -142.4,131.2 -334.7,17.4 -499.9,11.6 -612.2,-127.3 -1201.2,371.1 -1353.8,941.6 -47.4,-5.3 -94.4,-10.2 -141.4,-14.5 -181.1,9.2 -435.4,-89.6 -546.9,105.6 -257.2,394.3 -291.6,873.8 -287.2,1331 -87.7,-185.5 -175.8,-371.5 -244.1,-565.2 -58.2,345.3 24.7,687.8 154,1006 -464,-500.3 -537.6,-1228.8 -504.2,-1880.8 -118.2,85.7 -222.4,188.4 -328.9,288.2 -59.1,-101.7 -97.9,-212.6 -126.4,-326.4 -872.9,364.2 -770.7,1535.9 -546.4,2287.1 -434,-141.4 -805.98,-440.3 -1027.83,-840.9 -406.87,399.2 -313.86,1013.3 -304.19,1528.8 -152.57,-208.9 -245.58,-451 -359.4,-681.5"
         style="fill:#aca175;fill-opacity:1;fill-rule:nonzero;stroke:none"
         transform="matrix(0.13333333,0,0,-0.13333333,0,5133.7067)" />
      <path
         id="path101"
         d="m 4180.8,19835 c 22.28,0.4 66.84,1.9 89.11,2.4 7.26,-185.6 7.26,-371.1 14.53,-557.1 -34.87,33 -69.25,64.9 -103.64,96.9 -214.12,-869.9 -141.92,-1774.7 -151.63,-2662 -14.05,-939.2 16.96,-1912.4 367.16,-2795.4 236.36,318.2 285.29,825.9 422.38,1225 111.4,-594.3 147.25,-1201.7 283.36,-1791.7 631.62,459.2 386.02,1285.1 596.24,1921.5 349.71,-555.1 475.18,-1220.6 757.56,-1812 230.08,-627.8 222.8,-1309.3 419.47,-1945.2 298.84,470.3 647.11,980.3 417.52,1561.5 972.13,-1644.9 1803.8,-3440.4 3091.24,-4843.7 482,-861.7 1023,-1695.2 1675,-2439.2 580.7,-741.6 1451.1,-1233.2 2367.1,-1424.5 149.2,-129.9 259.1,-304.2 391.4,-453 -945.1,91.6 -1862,507.7 -2529.5,1187.3 -650,599.1 -1027.3,1418.7 -1632.3,2057.6 -36.8,-467 168.6,-912.6 268.4,-1362.1 -242.7,355.1 -395.7,764.3 -653.4,1111.2 -636.99,956.5 -1626.53,1703 -1955.43,2844.6 -197.63,787.1 -242.68,1676.5 -813.26,2308.5 244.12,-1009.8 -133.21,-2093.4 323.07,-3066 -794.87,884.4 -1314.1,2005.8 -1544.15,3169.7 -149.2,766.2 -335.19,1530.6 -645.67,2248.5 -9.72,-572.6 33.4,-1148 -38.29,-1718.6 -81.85,-831.2 -280.43,-1690.4 -41.64,-2512.9 -569.62,615.1 -760.46,1474.9 -956.62,2264.9 120.12,-150.6 166.15,-341.5 261.55,-506.2 -196.16,1132.5 -899.96,2100.3 -1096.12,3234.6 -278.53,1544.2 -255.77,3210 416.56,4655.4"
         style="fill:#ad721d;fill-opacity:1;fill-rule:nonzero;stroke:none"
         transform="matrix(0.13333333,0,0,-0.13333333,0,5133.7067)" />
      <path
         id="path102"
         d="m 4758.64,17466.3 c 417.52,742.2 766.76,1529.2 951.78,2363.3 11.16,-714.5 77.02,-1428.9 223.32,-2129.3 -307.59,-918.8 -127.89,-1969.9 224.24,-2847.1 19.36,372.5 -230.08,776 0,1118.4 109.96,-421.9 232.49,-854 484.38,-1216.3 -5.33,399.7 -70.72,795.8 -64.91,1195.5 240.26,-786.1 561.38,-1545.7 990.52,-2248 744.98,-1251.1 1261.81,-2644.6 2174.82,-3791.2 -69.74,401.6 37.8,808 250.44,1149.9 142.37,-542 475.17,-988.1 804.97,-1428.4 169.1,-368.6 403.1,-703.2 568.2,-1074.3 684,-1615.4 2017.4,-2812.2 3059.8,-4187.3 -916,191.3 -1786.4,682.9 -2367.1,1424.5 -652,744 -1193,1577.5 -1675,2439.2 -1287.44,1403.3 -2119.11,3198.8 -3091.24,4843.7 229.59,-581.2 -118.68,-1091.2 -417.52,-1561.5 -196.67,635.9 -189.39,1317.4 -419.47,1945.2 -282.38,591.4 -407.85,1256.9 -757.56,1812 -210.22,-636.4 35.38,-1462.3 -596.24,-1921.5 -136.11,590 -171.96,1197.4 -283.36,1791.7 -137.09,-399.1 -186.02,-906.8 -422.38,-1225 -350.2,883 -381.21,1856.2 -367.16,2795.4 9.71,887.3 -62.49,1792.1 151.63,2662 34.39,-32 68.77,-63.9 103.64,-96.9 37.8,-632.5 322.11,-1207.5 474.2,-1814"
         style="fill:#e7a911;fill-opacity:1;fill-rule:nonzero;stroke:none"
         transform="matrix(0.13333333,0,0,-0.13333333,0,5133.7067)" />
      <path
         id="path103"
         d="m 9792.68,17610.3 c 127.9,652.9 183.58,1577.5 922.72,1823.6 271.8,-200.1 282.9,-595.8 435.5,-881.6 129.8,-380.2 696,-496.4 625.3,-961.9 5.3,-468.9 -490.2,-662.1 -877.2,-729.1 -526,-191.7 -1229.81,98.4 -1106.32,749"
         style="fill:#141313;fill-opacity:1;fill-rule:nonzero;stroke:none"
         transform="matrix(0.13333333,0,0,-0.13333333,0,5133.7067)" />
      <path
         id="path104"
         d="m 23051.8,19150 c 121.1,-272.7 179.7,-567.6 208.3,-863.6 -153.6,-741.6 -415.6,-1453.6 -599.2,-2187.4 -272.7,-10.7 -545.9,-1 -816.7,30.5 4.5,100.3 9.7,200 17,299.8 124.5,757.6 -305.6,1441 -826.8,1945.3 559.4,-167.6 1052.5,-487.8 1555.3,-773.5 137.1,522.1 374,1013.7 462.1,1548.9"
         style="fill:#65471a;fill-opacity:1;fill-rule:nonzero;stroke:none"
         transform="matrix(0.13333333,0,0,-0.13333333,0,5133.7067)" />
      <path
         id="path105"
         d="m 2025.83,17944.9 c -72.16,371.1 166.62,688.3 306.1,1010.9 132.27,-892.7 277.57,-1783.4 391.88,-2679 209.25,-1398 859.26,-2665.5 1361.56,-3970.9 355.52,-962.9 953.25,-1831.9 1704.02,-2528.9 -106.58,390.9 -162.77,799.7 -93.5,1202.2 C 6548.86,9109.6 7779.19,7423 9272.96,6014 10439.3,4898.4 11548.1,3724.3 12636.4,2533.3 11187.7,3209.5 9959.32,4303.7 8775.01,5368.8 7256.55,6784.6 5887.24,8354.9 4681.62,10044.9 c -136.58,154.5 -219.41,386 -427.2,456.3 -1108.26,2352.5 -1879.37,4865.4 -2228.59,7443.7"
         style="fill:#aca175;fill-opacity:1;fill-rule:nonzero;stroke:none"
         transform="matrix(0.13333333,0,0,-0.13333333,0,5133.7067)" />
      <path
         id="path106"
         d="m 15101.9,18388.1 c 635.4,1.5 1230.7,-297.4 1765.5,-615.6 158.4,-83.8 371,-291.6 186.5,-460.6 -414.7,-371 -992.5,-506.6 -1534.5,-549.8 -494.6,-67.3 -887.8,338.6 -1124.7,723.2 -207.8,438.8 287.7,886.8 707.2,902.8"
         style="fill:#141313;fill-opacity:1;fill-rule:nonzero;stroke:none"
         transform="matrix(0.13333333,0,0,-0.13333333,0,5133.7067)" />
      <path
         id="path107"
         d="m 5933.74,17700.3 c 114.28,135.2 224.24,274.2 321.6,421.9 -188.42,-699.9 -236.38,-1436.6 -97.36,-2150.6 -230.08,-342.4 19.36,-745.9 0,-1118.4 -352.13,877.2 -531.83,1928.3 -224.24,2847.1"
         style="fill:#ad721d;fill-opacity:1;fill-rule:nonzero;stroke:none"
         transform="matrix(0.13333333,0,0,-0.13333333,0,5133.7067)" />
      <path
         id="path108"
         d="m 26938.9,17067.8 c -37.4,231 -157,657.2 207.3,660.6 455.3,-61.5 857.3,-328.8 1244.8,-562.3 58.1,156.9 136.6,308 258.6,425.7 26.2,-87.2 53.4,-174.4 79.5,-262 68.8,-17.9 137.1,-35.4 206.8,-53.8 -192.8,-145.3 -288.7,-365.2 -386.5,-576.8 -494.1,-413.3 -342.9,-1160.6 28.6,-1602.4 136.6,-245 515.8,-423.8 409.3,-747.4 -224.8,-348.2 -694.6,-438.8 -1069.5,-302.6 -1317,371.4 -2694.1,426.7 -4053.3,409.7 -250.9,14.6 -497.8,73.2 -742,130.3 -11.1,235.9 -10.2,472.2 -1.4,708.1 360.4,-84.2 733.8,-41.1 1071.9,102.7 464,141.4 688.3,-425.2 1115,-458.6 348.2,-53.3 814.7,-2.4 980.8,357.9 66.9,139.9 -96.3,226.7 -203.8,265.9 -599.8,211.7 -1245.9,215.6 -1860.5,359.4 85.7,219.4 190.8,432.5 348.7,609.3 135.6,-58.1 287.7,-62.5 426.7,-10.6 19.4,49.4 38.8,98.3 59.1,147.2 547.3,371.6 1231.8,481 1879.9,399.7"
         style="fill:#e7a911;fill-opacity:1;fill-rule:nonzero;stroke:none"
         transform="matrix(0.13333333,0,0,-0.13333333,0,5133.7067)" />
      <path
         id="path109"
         d="m 36022.3,17068.7 c 256.7,-651.5 369,-1353.8 386.5,-2051.8 -265.4,66.9 -626.3,-208.7 -291.1,-412.2 -50.9,-131.2 -102.2,-267.8 -207.3,-366.7 23.7,171 18.4,348.8 -91.1,491.2 -237.9,-108 -375.9,-356.5 -396.2,-609.8 -199.6,-50.4 -408.4,-42.1 -589,64 657.8,388.4 1134.4,1181.8 1155.7,1945.1 47.5,311.5 68.8,625.8 32.5,940.2"
         style="fill:#e7a911;fill-opacity:1;fill-rule:nonzero;stroke:none"
         transform="matrix(0.13333333,0,0,-0.13333333,0,5133.7067)" />
      <path
         id="path110"
         d="m 12962.9,16789.3 c 199,-5.9 198.6,-262.1 248,-404.5 152.6,-750.8 359.9,-1497.7 767.2,-2153 -396.7,-126.9 -780.3,100.2 -1143.1,233.4 -483.9,239.8 -556.5,846.2 -604,1325.7 -67.3,450.5 267.4,951.9 731.9,998.4"
         style="fill:#141313;fill-opacity:1;fill-rule:nonzero;stroke:none"
         transform="matrix(0.13333333,0,0,-0.13333333,0,5133.7067)" />
      <path
         id="path111"
         d="m 28549.4,16699.2 c 107,56.1 224.8,89.1 340.5,123 -15,-986.7 739.7,-1796.1 1581.9,-2202 196.2,-76.5 263.1,-291.5 372.5,-452.4 327,-540.1 831.7,-991 982.8,-1624.1 133.7,-550.2 -158.4,-1131.5 -615.1,-1438 -1110.2,-471.4 -2331.3,-688.3 -3535.4,-592.9 -429.7,35.3 -860.8,86.2 -1291.8,45 1320.8,-760.4 2927.5,-305.2 4276.4,131.8 -112.4,-79 -226.2,-160.3 -354.5,-210.7 -1270.5,-497 -2699.4,-948 -4054.7,-516.9 -481.9,167.6 -1014.2,473.3 -1083,1032.2 371.5,169.1 907.2,560.9 1243.4,144.9 224.2,-175.9 524.1,-45.1 713.9,118.6 278.5,143 652.5,92.6 882.1,335.7 49.4,152.1 -175.4,136.2 -267.9,113.8 -498.4,-114.3 -1031.7,-71.2 -1503,127.4 -383.6,184.1 -854.4,58.6 -1206.6,330.3 -226.2,256.8 -593.8,563.4 -436.9,945.1 181.7,266.9 536.7,109 784.7,46.5 1197.4,-306.6 2407.8,-628.3 3651.2,-649.6 202.5,-21.3 577.3,-74.6 559.4,235.9 -15.5,359.9 -469.8,275.1 -706.7,386.5 -1612.9,637.9 -3295.1,1110.7 -5018.1,1327.2 1359.2,17 2736.3,-38.3 4053.3,-409.7 374.9,-136.2 844.7,-45.6 1069.5,302.6 106.5,323.6 -272.7,502.4 -409.3,747.4 -371.5,441.8 -522.7,1189.1 -28.6,1602.4"
         style="fill:#fdfceb;fill-opacity:1;fill-rule:nonzero;stroke:none"
         transform="matrix(0.13333333,0,0,-0.13333333,0,5133.7067)" />
      <path
         id="path112"
         d="m 23239.3,16506.9 c 449,21.3 888.8,181.6 1333.9,24.6 -157.9,-176.8 -263,-389.9 -348.7,-609.3 -349.8,37.8 -696.1,104.2 -1047.7,122.1 22.3,154 42.6,308.5 62.5,462.6"
         style="fill:#ad721d;fill-opacity:1;fill-rule:nonzero;stroke:none"
         transform="matrix(0.13333333,0,0,-0.13333333,0,5133.7067)" />
      <path
         id="path113"
         d="m 25450.9,16608 c 290.1,23.8 608.3,7.4 865.5,-139.9 139,-151.1 -88.6,-294.5 -233.4,-219.9 -223.8,60 -714,-2.4 -632.1,359.8"
         style="fill:#141313;fill-opacity:1;fill-rule:nonzero;stroke:none"
         transform="matrix(0.13333333,0,0,-0.13333333,0,5133.7067)" />
      <path
         id="path114"
         d="m 30621.5,16432.8 c 744.5,67.7 1524.8,262.9 2255.7,11.6 324.6,-98.9 544.9,-408.9 853.5,-513.5 505.7,335.2 1048.2,709.6 1694.3,635 267.4,-225.7 159.9,-733.3 -173.4,-839.4 -297.9,-119.1 -653.9,-177.8 -859.7,-447.5 -335.7,-452 -261.1,-1102.9 -665.6,-1515.1 -232.5,-212.7 -491.6,-398.7 -765.8,-553.7 398.7,684 853.5,1452.1 717.4,2274.6 -191.3,-800.1 -521.2,-1591.1 -1049.2,-2226.6 -291,-45.6 -496.4,393.3 -326.9,626.8 188.4,486.8 617.1,1170.7 100.3,1597.9 -564.8,372 -1690,16 -1780.6,949.9"
         style="fill:#da561e;fill-opacity:1;fill-rule:nonzero;stroke:none"
         transform="matrix(0.13333333,0,0,-0.13333333,0,5133.7067)" />
      <path
         id="path115"
         d="m 31587.8,16322.8 c 585.6,305.6 1809.7,-10.2 1676.9,-851.1 -330.3,609.4 -1072.8,694.6 -1676.9,851.1"
         style="fill:#fdfceb;fill-opacity:1;fill-rule:nonzero;stroke:none"
         transform="matrix(0.13333333,0,0,-0.13333333,0,5133.7067)" />
      <path
         id="path116"
         d="m 34103.2,15676.1 c 12.6,546.9 686.4,699.9 1129.5,690.7 206.3,24.8 104.7,-251.3 -54.3,-229.6 -401.5,-43.6 -762.3,-211.1 -1075.2,-461.1"
         style="fill:#fdfceb;fill-opacity:1;fill-rule:nonzero;stroke:none"
         transform="matrix(0.13333333,0,0,-0.13333333,0,5133.7067)" />
      <path
         id="path117"
         d="m 26708.3,16277.3 c 120.1,44.5 416.6,-14.5 337.6,-182.6 -123,-33 -430.1,-3.9 -337.6,182.6"
         style="fill:#141313;fill-opacity:1;fill-rule:nonzero;stroke:none"
         transform="matrix(0.13333333,0,0,-0.13333333,0,5133.7067)" />
      <path
         id="path118"
         d="m 35989.8,16128.5 c -21.3,-763.3 -497.9,-1556.7 -1155.7,-1945.1 180.6,-106.1 389.4,-114.4 589,-64 172.4,-16 351.1,-2.4 487.3,118.6 105.1,98.9 156.4,235.5 207.3,366.7 93.9,18.4 189.8,33 285.7,46 -16.9,-294.9 -60,-588.4 -123.5,-877.1 -294.5,-58.7 -575.4,-161.3 -822.4,-333.8 -193.3,-150.6 -498,-25.2 -657.8,-214 -118.2,-399.2 497,-458.3 655.8,-172 125,245 402.5,97.8 601.6,49.9 -83.8,-257.7 -140,-549.3 -336.2,-748.4 -282.8,-150.6 -619,-84.7 -925.5,-89.1 -285.8,13 -360.9,-369.6 -287.8,-586.6 198.1,-76.5 398.6,23.8 585.1,88.2 111,-52.4 208.3,-128.4 279.5,-230.1 -272.7,-530.8 -959.1,-395.3 -1443.9,-330.8 207.4,-211.2 484.4,-323.6 737.7,-466.5 -68.3,-210.7 -260.6,-351.1 -436.9,-469.4 -536.2,-259.6 -1232.3,-188.8 -1564,351.7 -240.7,430.1 -266.4,984.8 -22.8,1419.7 362.3,679.1 1043.8,1087.5 1547.6,1645.4 296.4,323.5 329.8,786.1 538.6,1154.8 522.1,307.6 1120.8,638.3 1261.3,1285.9"
         style="fill:#fdfceb;fill-opacity:1;fill-rule:nonzero;stroke:none"
         transform="matrix(0.13333333,0,0,-0.13333333,0,5133.7067)" />
      <path
         id="path119"
         d="m 20707.9,15097.3 c 237.8,281.4 401.6,613.2 616.2,910.7 197.1,-17 413.1,-20.4 589.9,-112.9 -63.9,-319.2 -173.9,-626.8 -269.8,-937.8 -311.9,47.5 -623.9,96.4 -936.3,140"
         style="fill:#7b6e4c;fill-opacity:1;fill-rule:nonzero;stroke:none"
         transform="matrix(0.13333333,0,0,-0.13333333,0,5133.7067)" />
      <path
         id="path120"
         d="m 21914,15895.1 c 215.6,5.3 423.8,-51.3 629.2,-107.6 -13.6,-326.4 -59.6,-650.9 -54.2,-978.9 -284.8,26.7 -566.7,82.9 -844.8,148.7 95.9,311 205.9,618.6 269.8,937.8"
         style="fill:#473721;fill-opacity:1;fill-rule:nonzero;stroke:none"
         transform="matrix(0.13333333,0,0,-0.13333333,0,5133.7067)" />
      <path
         id="path121"
         d="m 11835.3,15005.8 c 68.3,193.7 156.4,379.7 244.1,565.2 -4.4,-457.2 30,-936.7 287.2,-1331 111.5,-195.2 365.8,-96.4 546.9,-105.6 -149.7,-234 -281.9,-486.3 -289.7,-771.1 -473.7,398.6 -773.5,1024 -788.5,1642.5"
         style="fill:#8e835d;fill-opacity:1;fill-rule:nonzero;stroke:none"
         transform="matrix(0.13333333,0,0,-0.13333333,0,5133.7067)" />
      <path
         id="path122"
         d="m 26580.4,15387.9 c 370.1,42.7 803.1,-88.6 1091.8,-328.9 -65.9,-349.2 -526.5,-600.6 -815.7,-325 -166.6,148.7 -501.8,439.4 -276.1,653.9"
         style="fill:#141313;fill-opacity:1;fill-rule:nonzero;stroke:none"
         transform="matrix(0.13333333,0,0,-0.13333333,0,5133.7067)" />
      <path
         id="path123"
         d="m 17686.5,15272.2 c 1201.2,-152.1 2409.2,-302.2 3585.7,-591 -106.5,-5.3 -213.1,-7.2 -319.6,-13 301.2,-93 620.4,-35.4 925.1,-106.6 -884.4,-50.4 -1776.7,-18.8 -2663.1,-61.5 -424.3,40.7 -849.6,-15.5 -1273.9,-31.5 -93.4,265.4 -152,541.5 -254.2,803.6"
         style="fill:#aca175;fill-opacity:1;fill-rule:nonzero;stroke:none"
         transform="matrix(0.13333333,0,0,-0.13333333,0,5133.7067)" />
      <path
         id="path124"
         d="m 28175.4,14957.8 c 371.1,176.4 862.7,-405.4 459.2,-657.3 -387,-246 -684.4,399.7 -459.2,657.3"
         style="fill:#141313;fill-opacity:1;fill-rule:nonzero;stroke:none"
         transform="matrix(0.13333333,0,0,-0.13333333,0,5133.7067)" />
      <path
         id="path125"
         d="m 35423.1,14119.4 c 20.3,253.3 158.3,501.8 396.2,609.8 109.5,-142.4 114.8,-320.2 91.1,-491.2 -136.2,-121 -314.9,-134.6 -487.3,-118.6"
         style="fill:#141313;fill-opacity:1;fill-rule:nonzero;stroke:none"
         transform="matrix(0.13333333,0,0,-0.13333333,0,5133.7067)" />
      <path
         id="path126"
         d="m 17940.7,14468.6 c 424.3,16 849.6,72.2 1273.9,31.5 -1132.4,-393.3 -2366.6,-211.2 -3539.7,-413.6 -341.5,-28.7 -684.5,-85.3 -1026.9,-44.7 282.4,185.1 649.6,96.9 965.4,186.1 775.4,84.3 1549.9,175.8 2327.3,240.7"
         style="fill:#fdfceb;fill-opacity:1;fill-rule:nonzero;stroke:none"
         transform="matrix(0.13333333,0,0,-0.13333333,0,5133.7067)" />
      <path
         id="path127"
         d="m 29531.7,14299.1 c 175.3,-128.4 358.9,-244.6 549.7,-349.2 -201.5,-25.7 -397.6,29.4 -583.1,99.7 10.1,83.8 21.3,166.7 33.4,249.5"
         style="fill:#e7a911;fill-opacity:1;fill-rule:nonzero;stroke:none"
         transform="matrix(0.13333333,0,0,-0.13333333,0,5133.7067)" />
      <path
         id="path128"
         d="m 17992.6,14149.9 c 890.3,9.7 1781.5,44.5 2671.3,-3.4 -61.1,-88.7 -122.6,-177.3 -184.1,-265.9 18.9,-18.4 56.7,-55.7 75.6,-74.1 -569.6,-67.3 -1135.9,-173.9 -1708.4,-211.7 70.7,-21.4 142,-43.6 212.7,-67.3 -337.2,23.7 -674.3,3.8 -1011.4,-1.5 -10.2,208.8 -19.4,418 -55.7,623.9"
         style="fill:#aca175;fill-opacity:1;fill-rule:nonzero;stroke:none"
         transform="matrix(0.13333333,0,0,-0.13333333,0,5133.7067)" />
      <path
         id="path129"
         d="m 20663.9,14146.5 c 541,-33.9 1170.2,20.3 1648.7,-221.8 -587.5,-11.7 -1169.7,-111.4 -1757.2,-118.2 -18.9,18.4 -56.7,55.7 -75.6,74.1 61.5,88.6 123,177.2 184.1,265.9"
         style="fill:#65471a;fill-opacity:1;fill-rule:nonzero;stroke:none"
         transform="matrix(0.13333333,0,0,-0.13333333,0,5133.7067)" />
      <path
         id="path130"
         d="m 23133.2,13601.1 c 550.7,-137.1 1086.9,94.9 1634.2,78 361.9,11.6 538.1,-392.3 882.6,-431.6 263.5,-14 492.6,253.3 753.7,171.5 158.3,-209.2 337.1,-478.5 636.4,-463.1 326.9,-28.1 373.9,516.4 729.5,323.6 93.9,-533.8 643.2,-663.1 1073.8,-420.5 9.7,-141.9 52.8,-281.4 186.5,-352.1 -1243.4,21.3 -2453.8,343 -3651.2,649.6 -248,62.5 -603,220.4 -784.7,-46.5 -156.9,-381.7 210.7,-688.3 436.9,-945.1 -377.8,149.8 -776.9,230.6 -1160.5,358.5 -376.9,238.7 -580.7,674.2 -737.2,1077.7"
         style="fill:#aca175;fill-opacity:1;fill-rule:nonzero;stroke:none"
         transform="matrix(0.13333333,0,0,-0.13333333,0,5133.7067)" />
      <path
         id="path131"
         d="m 18048.3,13526 c 337.1,5.3 674.2,25.2 1011.4,1.5 345.3,-36.8 690.6,60 1037.5,15 -1331.1,-134.7 -2683,-227.2 -4018.9,-370.6 -405.3,-37.7 -811.8,-72.6 -1215.7,-123.9 -1021.1,-76.1 -2029,-269.9 -3038,-435.5 998.3,284.4 2053.3,424.3 3084,583.2 441.8,52.3 880.6,129.8 1325.2,154.5 603.6,70.7 1208.1,133.7 1814.5,175.8"
         style="fill:#fdfceb;fill-opacity:1;fill-rule:nonzero;stroke:none"
         transform="matrix(0.13333333,0,0,-0.13333333,0,5133.7067)" />
      <path
         id="path132"
         d="m 19987.7,13327.4 c 816.6,79 1646.3,42.1 2464.5,-23.2 -46.1,-93 -168.2,-65.3 -251.4,-88.2 -979.4,-106 -1931.2,-375.9 -2905.8,-508.6 269.4,160.8 449.1,427.7 692.7,620"
         style="fill:#65471a;fill-opacity:1;fill-rule:nonzero;stroke:none"
         transform="matrix(0.13333333,0,0,-0.13333333,0,5133.7067)" />
      <path
         id="path133"
         d="m 17936.9,13280 c 684.4,-8.8 1366.4,67.3 2050.8,47.4 -243.6,-192.3 -423.3,-459.2 -692.7,-620 -551.2,-115.3 -1094.6,-280.9 -1653.1,-355.5 -576.9,-37.8 -1144.6,73.1 -1690.4,251.4 -174,74.1 -353.7,12.6 -513,-64.4 -218.5,137.1 -412.7,310 -575.9,509.1 403.9,51.3 810.4,86.2 1215.7,123.9 216.6,-325.9 597.3,-686.3 1021.1,-552.6 372.5,62.5 678.1,324.1 837.5,660.7"
         style="fill:#aca175;fill-opacity:1;fill-rule:nonzero;stroke:none"
         transform="matrix(0.13333333,0,0,-0.13333333,0,5133.7067)" />
      <path
         id="path134"
         d="m 34223.3,12799 c -44.6,279.5 442.7,322.1 474.2,39.2 -62,-219.8 -391.9,-265.4 -474.2,-39.2"
         style="fill:#141313;fill-opacity:1;fill-rule:nonzero;stroke:none"
         transform="matrix(0.13333333,0,0,-0.13333333,0,5133.7067)" />
      <path
         id="path135"
         d="m 17796.9,12043.4 c 1571.3,336.6 3157.6,701.3 4770.5,732.3 -3276.2,-637.9 -6564.1,-1259.4 -9777,-2175.3 -16,7.8 -48.4,22.3 -64.4,30 1582,518.8 3183.3,983.3 4807.9,1351 87.7,19.3 175.3,40.7 263,62"
         style="fill:#fdfceb;fill-opacity:1;fill-rule:nonzero;stroke:none"
         transform="matrix(0.13333333,0,0,-0.13333333,0,5133.7067)" />
      <path
         id="path136"
         d="m 29708,12756.4 c 186.5,-22.8 526.5,26.1 583.2,-199.6 -159.8,-179.7 -416.6,-5.8 -608.4,26.2 6.3,43.1 18.9,129.7 25.2,173.4"
         style="fill:#141313;fill-opacity:1;fill-rule:nonzero;stroke:none"
         transform="matrix(0.13333333,0,0,-0.13333333,0,5133.7067)" />
      <path
         id="path137"
         d="m 15438.5,12538.9 c 159.3,77 339,138.5 513,64.4 545.8,-178.3 1113.5,-289.2 1690.4,-251.4 -26.6,-63.9 -53.7,-128.8 -79.9,-193.7 77,-39.8 155.5,-78.1 234.9,-114.8 -87.7,-21.3 -175.3,-42.7 -263,-62 -713.5,98.7 -1498.7,94.5 -2095.4,557.5"
         style="fill:#7b6e4c;fill-opacity:1;fill-rule:nonzero;stroke:none"
         transform="matrix(0.13333333,0,0,-0.13333333,0,5133.7067)" />
      <path
         id="path138"
         d="m 20536.5,11582.7 c 480,476.7 1119.3,758.1 1809.1,709.6 -413.7,-293 -1020.6,-251.3 -1329.1,-688.2 -130.3,-144.4 -324.6,-198.6 -505.7,-245.7 -49,40.8 -100.2,80 -151.1,116.8 60.1,33.9 119.1,69.8 176.8,107.5"
         style="fill:#473721;fill-opacity:1;fill-rule:nonzero;stroke:none"
         transform="matrix(0.13333333,0,0,-0.13333333,0,5133.7067)" />
      <path
         id="path139"
         d="m 33838.2,12103 c 219,110.4 391.4,-169.6 216,-322.7 -208.3,-139.9 -437.3,204.4 -216,322.7"
         style="fill:#141313;fill-opacity:1;fill-rule:nonzero;stroke:none"
         transform="matrix(0.13333333,0,0,-0.13333333,0,5133.7067)" />
      <path
         id="path140"
         d="m 29704.6,11677.7 c -372.5,-189 -222.3,349.7 56.2,97.8 -14,-24.7 -42.2,-73.2 -56.2,-97.8"
         style="fill:#141313;fill-opacity:1;fill-rule:nonzero;stroke:none"
         transform="matrix(0.13333333,0,0,-0.13333333,0,5133.7067)" />
      <path
         id="path141"
         d="m 20637.7,10769.5 c 792.9,427.7 1603.8,872.3 2495.5,1048.7 -2428.6,-1093.8 -4770.1,-2548.3 -6556.4,-4548.8 1929.2,1523.4 4071.6,2791.5 6325.8,3768.4 -1848.8,-1146 -3794.5,-2140.9 -5578,-3394.4 -464.9,-345.4 -992,-618.5 -1376.1,-1061.8 1169.8,1764.1 2869.4,3132.9 4689.2,4187.9"
         style="fill:#fdfceb;fill-opacity:1;fill-rule:nonzero;stroke:none"
         transform="matrix(0.13333333,0,0,-0.13333333,0,5133.7067)" />
      <path
         id="path142"
         d="m 23841.3,11779.9 c 614.6,213.1 1021.1,-356.1 1597.4,-350.7 -400.5,-133.7 -808.3,-246 -1201.2,-403.9 -151.1,241.1 -284.3,493 -396.2,754.6"
         style="fill:#8e835d;fill-opacity:1;fill-rule:nonzero;stroke:none"
         transform="matrix(0.13333333,0,0,-0.13333333,0,5133.7067)" />
      <path
         id="path143"
         d="m 28187.5,11274.7 c 154.1,140 361.9,613.2 580.8,357.4 -135.1,-187.9 -337.1,-361.8 -580.8,-357.4"
         style="fill:#141313;fill-opacity:1;fill-rule:nonzero;stroke:none"
         transform="matrix(0.13333333,0,0,-0.13333333,0,5133.7067)" />
      <path
         id="path144"
         d="m 16143.8,10152.4 c 1406.1,628.7 2899.9,1056.4 4392.7,1430.3 -57.7,-37.7 -116.7,-73.6 -176.8,-107.5 -1393.6,-465.9 -2819.5,-855.8 -4215.9,-1322.8"
         style="fill:#fdfceb;fill-opacity:1;fill-rule:nonzero;stroke:none"
         transform="matrix(0.13333333,0,0,-0.13333333,0,5133.7067)" />
      <path
         id="path145"
         d="m 27676.6,10512.8 c 1204.1,-95.4 2425.2,121.5 3535.4,592.9 -163.3,-160.4 -342.5,-321.7 -550.8,-416.1 -1348.9,-437 -2955.6,-892.2 -4276.4,-131.8 431,41.2 862.1,-9.7 1291.8,-45"
         style="fill:#aca175;fill-opacity:1;fill-rule:nonzero;stroke:none"
         transform="matrix(0.13333333,0,0,-0.13333333,0,5133.7067)" />
      <path
         id="path146"
         d="m 24595,10721.5 c 185.5,102.7 373.9,201 574,272.7 68.8,-558.9 601.1,-864.6 1083,-1032.2 1355.3,-431.1 2784.2,19.9 4054.7,516.9 -860.8,-574 -1879.9,-951.9 -2918.4,-1025.4 -1066,-49.5 -2084.2,499.3 -2793.3,1268"
         style="fill:#8e835d;fill-opacity:1;fill-rule:nonzero;stroke:none"
         transform="matrix(0.13333333,0,0,-0.13333333,0,5133.7067)" />
      <path
         id="path147"
         d="m 21813.2,9348.3 c 179.8,518.3 591,939.7 970.3,1328.2 162.7,-129.8 275.6,-306.6 386.5,-480.5 -467.4,-257.2 -934.4,-519.7 -1356.8,-847.7"
         style="fill:#65471a;fill-opacity:1;fill-rule:nonzero;stroke:none"
         transform="matrix(0.13333333,0,0,-0.13333333,0,5133.7067)" />
      <path
         id="path148"
         d="m 32665.1,10622.7 c 331.7,-540.5 1027.8,-611.3 1564,-351.7 -434.5,-501.7 -1435.2,-347.7 -1564,351.7"
         style="fill:#8e835d;fill-opacity:1;fill-rule:nonzero;stroke:none"
         transform="matrix(0.13333333,0,0,-0.13333333,0,5133.7067)" />
      <path
         id="path149"
         d="m 10798.2,9633.1 c -66.8,301.8 -264.4,625.4 -44.5,914.6 243.2,-323.6 436.9,-681.1 656.3,-1021.1 274.1,-720.8 781.8,-1344.2 1269,-1938.5 -207.7,-71.7 -391.3,62.5 -555,172 -288.7,229.6 -447.6,608.4 -757.6,798.7 -165.1,371.1 -399.1,705.7 -568.2,1074.3"
         style="fill:#65471a;fill-opacity:1;fill-rule:nonzero;stroke:none"
         transform="matrix(0.13333333,0,0,-0.13333333,0,5133.7067)" />
      <path
         id="path150"
         d="m 23170,10196 c 219.9,108.5 430.1,238.3 659.7,325.9 -217.5,-187.9 -441.2,-371.5 -679.6,-531.8 -437.3,-255.2 -860.7,-533.3 -1280.6,-814.7 -1660.4,-1084 -3280.2,-2247.4 -4720.7,-3614.8 1333,1504.9 3005.5,2668.9 4664.4,3787.7 422.4,328 889.4,590.5 1356.8,847.7"
         style="fill:#fdfceb;fill-opacity:1;fill-rule:nonzero;stroke:none"
         transform="matrix(0.13333333,0,0,-0.13333333,0,5133.7067)" />
      <path
         id="path151"
         d="m 21869.5,9175.4 c 419.9,281.4 843.3,559.5 1280.6,814.7 98.3,-631.1 -187.9,-1249.7 -206.8,-1881.2 -448.5,225.6 -949.9,547.8 -1073.8,1066.5"
         style="fill:#e7a911;fill-opacity:1;fill-rule:nonzero;stroke:none"
         transform="matrix(0.13333333,0,0,-0.13333333,0,5133.7067)" />
      <path
         id="path152"
         d="m 12679,7588.1 c -487.2,594.3 -994.9,1217.7 -1269,1938.5 804.5,-1080.2 2102.2,-1654.1 2886.9,-2749.7 216.9,-315.9 437.3,-674.8 415,-1072.9 -674.7,630.6 -1409.5,1199.7 -2032.9,1884.1"
         style="fill:#e7a911;fill-opacity:1;fill-rule:nonzero;stroke:none"
         transform="matrix(0.13333333,0,0,-0.13333333,0,5133.7067)" />
      <path
         id="path153"
         d="m 29001.3,8740 c 1124.7,-515.4 2518.2,-292.1 3425,544.4 l -11.6,-27.1 c -154.1,-379.2 -291.1,-778.4 -574,-1085 65.4,221.9 150.1,437.4 207.3,661.1 -313.4,-176.3 -415.6,-711 -841.9,-620.4 -288.6,48.9 -382.1,-254.3 -487.2,-454.8 -156.5,-341.5 -560.4,107 -797.3,-114.8 -314.8,-257.7 -557.5,-602.1 -920.8,-802.2 142.4,379.3 311.9,752.8 371,1156.7 -321.1,-79.9 -593.8,-273.2 -891.2,-409.2 114.3,258.1 259.6,501.2 361.4,764.7 -1287.5,-681 -2691.7,-1174.1 -4164.2,-1182.8 -51.8,140.5 -59.1,291.2 -63.9,438.8 404.9,130.9 843.8,109.5 1240,274.2 927.5,128.4 1799.9,505.7 2599.6,981.4 189.9,127.8 372.5,-63 547.8,-125"
         style="fill:#aca175;fill-opacity:1;fill-rule:nonzero;stroke:none"
         transform="matrix(0.13333333,0,0,-0.13333333,0,5133.7067)" />
      <path
         id="path154"
         d="m 31840.7,8172.3 c 282.9,306.6 419.9,705.8 574,1085 -42.7,-1410.5 -609.9,-2759.9 -1530.6,-3821.7 3.3,454.4 109.4,902.8 82.3,1359.1 -398.6,-757.1 -1065.1,-1403.6 -1895.4,-1656 23.3,143.4 53.3,285.3 77.1,427.7 62.4,361.8 170,713.9 218.4,1077.7 -372.9,-171 -660.2,-634 -1118.4,-508.6 -669.4,106.6 -1294.7,-199.5 -1881.8,-475.1 4.4,797.3 -811.3,1226.4 -1526.7,1085.4 -47.9,129.8 -97.9,258.2 -147.7,387 l -14.1,37.8 c 1472.5,8.7 2876.7,501.8 4164.2,1182.8 -101.8,-263.5 -247.1,-506.6 -361.4,-764.7 297.4,136 570.1,329.3 891.2,409.2 -59.1,-403.9 -228.6,-777.4 -371,-1156.7 363.3,200.1 606,544.5 920.8,802.2 236.9,221.8 640.8,-226.7 797.3,114.8 105.1,200.5 198.6,503.7 487.2,454.8 426.3,-90.6 528.5,444.1 841.9,620.4 -57.2,-223.7 -141.9,-439.2 -207.3,-661.1"
         style="fill:#fdfceb;fill-opacity:1;fill-rule:nonzero;stroke:none"
         transform="matrix(0.13333333,0,0,-0.13333333,0,5133.7067)" />
      <path
         id="path155"
         d="m 23951.8,7748 c 555.5,418.5 1272.4,5.8 1902.1,135.6 -396.2,-164.7 -835.1,-143.3 -1240,-274.2 4.8,-147.6 12.1,-298.3 63.9,-438.8 l 14.1,-37.8 c -135.7,-9.2 -270.8,-18.8 -405.9,-29 -87.2,-550.7 577.3,-555.6 852.5,-868.9 485.7,-409.8 589.5,-1079.7 983.7,-1554.9 416.1,280.9 816.7,604 1305.4,751.7 -59.1,-100.7 -118.2,-200.9 -175.8,-302.7 311.9,52.8 557.5,260.1 834,396.3 18,-58.2 36.4,-117.3 55.2,-176.4 292.6,255.8 540.1,555.1 807.5,835.1 160.3,-163.8 188,-399.2 199.6,-617.6 -23.8,-142.4 -53.8,-284.3 -77.1,-427.7 -17.4,-109.9 -25.6,-221.4 -34.8,-332.8 608.8,233.5 1232.2,539.6 1607.1,1074.9 -276.6,-1011.9 -1395.9,-1556.3 -2395.2,-1509.8 186,309.9 372.9,626.3 465.5,978.9 -262.1,-160.8 -449.5,-409.8 -682,-606.9 2.4,121 4.4,242.2 4.4,362.8 -691.7,-252.4 -1407.1,-457.8 -2038.3,-847.7 -214.1,790 -774,1420.7 -1409.5,1909.4 -347.8,284.3 -796.3,570.1 -804,1074.3 205.8,-49.3 416.5,-86.7 629.7,-69.7 -201.1,108.4 -732.4,289.7 -462.1,575.9"
         style="fill:#8e835d;fill-opacity:1;fill-rule:nonzero;stroke:none"
         transform="matrix(0.13333333,0,0,-0.13333333,0,5133.7067)" />
      <path
         id="path156"
         d="m 24286,7103.8 c 135.1,10.2 270.2,19.8 405.9,29 49.8,-128.8 99.8,-257.2 147.7,-387 715.4,141 1531.1,-288.1 1526.7,-1085.4 587.1,275.6 1212.4,581.7 1881.8,475.1 458.2,-125.4 745.5,337.6 1118.4,508.6 -48.4,-363.8 -156,-715.9 -218.4,-1077.7 -11.6,218.4 -39.3,453.8 -199.6,617.6 -267.4,-280 -514.9,-579.3 -807.5,-835.1 -18.8,59.1 -37.2,118.2 -55.2,176.4 -276.5,-136.2 -522.1,-343.5 -834,-396.3 57.6,101.8 116.7,202 175.8,302.7 -488.7,-147.7 -889.3,-470.8 -1305.4,-751.7 -394.2,475.2 -498,1145.1 -983.7,1554.9 -275.2,313.3 -939.7,318.2 -852.5,868.9"
         style="fill:#aca175;fill-opacity:1;fill-rule:nonzero;stroke:none"
         transform="matrix(0.13333333,0,0,-0.13333333,0,5133.7067)" />
      <path
         id="path158"
         d="m 29071,5138.7 c 830.3,252.4 1496.8,898.9 1895.4,1656 27.1,-456.3 -79,-904.7 -82.3,-1359.1 -12.1,-60.1 -72.2,-98.8 -102.2,-150.2 0.9,217.1 -22.8,433.6 -86.3,641.3 -13,-11.5 -39.2,-34.3 -52.3,-45.9 -374.9,-535.3 -998.3,-841.4 -1607.1,-1074.9 9.2,111.4 17.4,222.9 34.8,332.8"
         style="fill:#aca175;fill-opacity:1;fill-rule:nonzero;stroke:none"
         transform="matrix(0.13333333,0,0,-0.13333333,0,5133.7067)" />
    </g>
  </g>
</svg>
